<svg width="500" height="572" viewBox="0 0 500 572" fill="none" xmlns="http://www.w3.org/2000/svg">
<g clip-path="url(#clip0_6_79)">
<path fill-rule="evenodd" clip-rule="evenodd" d="M348.317 218.577L312.363 213.65C312.363 232.491 308.597 247.832 307.102 266.747C319.965 266.747 340.938 267.369 353.801 267.369C352.94 250.184 349.202 235.785 348.317 218.577Z" fill="#E4EAFF" stroke="#192039" stroke-width="2" stroke-miterlimit="22.93"/>
<path d="M354.155 742.912L307.603 548.549" stroke="#192039" stroke-width="2" stroke-miterlimit="22.93"/>
<path d="M231.61 742.912L278.162 548.549" stroke="#192039" stroke-width="2" stroke-miterlimit="22.93"/>
<path fill-rule="evenodd" clip-rule="evenodd" d="M392.545 548.229C436.637 548.229 480.906 512.135 490.921 468.024L497.964 437.017C507.973 392.901 480.095 356.812 435.998 356.812C391.906 356.812 347.632 392.901 337.622 437.017L330.579 468.024C320.569 512.135 348.453 548.229 392.545 548.229Z" fill="#FFCCCC"/>
<path d="M399.109 529.148H240.707V548.554H399.109V529.148Z" fill="#FFCCCC"/>
<path d="M442.68 742.912L396.129 548.549" stroke="#192039" stroke-width="2" stroke-miterlimit="22.93"/>
<path d="M320.136 742.912L366.688 548.549" stroke="#192039" stroke-width="2" stroke-miterlimit="22.93"/>
<path fill-rule="evenodd" clip-rule="evenodd" d="M188.369 414.128C189.128 414.128 273.584 414.128 274.326 414.174C304.196 415.373 292.959 439.455 293.73 469.943C294.534 501.202 251.099 629.919 220.213 629.919C213.051 629.919 162.339 495.601 155.211 476.263C144.785 447.99 152.757 414.128 188.369 414.128Z" fill="#E4EAFF" stroke="#192039" stroke-width="2" stroke-miterlimit="22.93"/>
<path fill-rule="evenodd" clip-rule="evenodd" d="M268.38 510.616L221.703 513.511L183.678 557.187L221.012 629.919H288.006L268.38 510.616Z" fill="#E4EAFF" stroke="#192039" stroke-width="2" stroke-miterlimit="22.93"/>
<path fill-rule="evenodd" clip-rule="evenodd" d="M266.474 412.957C266.474 412.957 415.425 413.414 420.127 413.591L424.356 391.251C453.729 388.556 462.056 366.306 453.29 343.132C443.126 316.258 416.252 286.929 400.638 261.015C375.955 220.056 339.214 238.571 350.166 257.355C349.806 257.989 346.102 246.81 345.737 247.421C341.777 254.049 333.182 261.568 328.805 265.993C316.421 278.554 309.755 273.415 300.458 246.833C295.63 233.016 275.348 227.992 252.646 254.763C244.593 264.263 174.569 322.042 184.865 364.822C199.634 426.18 266.474 412.957 266.474 412.957Z" fill="#5159A7"/>
<path fill-rule="evenodd" clip-rule="evenodd" d="M184.088 330.378C188.355 330.379 192.526 329.114 196.075 326.744C199.623 324.373 202.389 321.003 204.022 317.059C205.656 313.116 206.084 308.777 205.252 304.59C204.42 300.403 202.366 296.557 199.35 293.538C196.333 290.52 192.489 288.464 188.304 287.63C184.12 286.797 179.782 287.224 175.84 288.858C171.898 290.491 168.528 293.257 166.158 296.806C163.787 300.355 162.522 304.528 162.522 308.797C162.532 314.516 164.808 319.999 168.85 324.043C172.892 328.088 178.371 330.366 184.088 330.378Z" fill="#192039" stroke="#192039" stroke-width="2" stroke-miterlimit="22.93"/>
<path d="M230.692 399.876C242.285 397.128 249.456 385.499 246.709 373.901C243.963 362.303 232.338 355.128 220.745 357.877C209.152 360.625 201.981 372.254 204.727 383.852C207.474 395.45 219.099 402.624 230.692 399.876Z" fill="#192039" stroke="#192039" stroke-width="2" stroke-miterlimit="22.93"/>
<path fill-rule="evenodd" clip-rule="evenodd" d="M253.177 336.144C257.444 336.145 261.615 334.88 265.164 332.509C268.712 330.138 271.478 326.768 273.111 322.824C274.745 318.88 275.172 314.54 274.34 310.353C273.508 306.167 271.453 302.321 268.436 299.302C265.419 296.283 261.574 294.228 257.389 293.395C253.204 292.563 248.866 292.991 244.924 294.625C240.982 296.259 237.613 299.026 235.243 302.576C232.873 306.126 231.609 310.299 231.61 314.568C231.622 320.287 233.898 325.767 237.94 329.811C241.982 333.855 247.46 336.132 253.177 336.144Z" fill="#192039" stroke="#192039" stroke-width="2" stroke-miterlimit="22.93"/>
<path fill-rule="evenodd" clip-rule="evenodd" d="M296.178 426.347C300.445 426.347 304.616 425.081 308.164 422.709C311.712 420.337 314.476 416.966 316.109 413.023C317.742 409.079 318.169 404.739 317.336 400.553C316.503 396.366 314.448 392.521 311.43 389.503C308.413 386.485 304.568 384.43 300.383 383.598C296.198 382.766 291.861 383.194 287.919 384.828C283.977 386.463 280.609 389.23 278.239 392.779C275.869 396.329 274.605 400.502 274.606 404.771C274.618 410.49 276.895 415.972 280.938 420.016C284.981 424.06 290.461 426.336 296.178 426.347Z" fill="#192039" stroke="#192039" stroke-width="2" stroke-miterlimit="22.93"/>
<path fill-rule="evenodd" clip-rule="evenodd" d="M266.474 412.957C266.474 412.957 415.425 413.414 420.127 413.591L424.356 391.251C453.729 388.556 462.056 366.306 453.29 343.132C443.126 316.258 416.252 286.929 400.638 261.015C375.955 220.056 339.214 238.571 350.166 257.355C349.806 257.989 346.102 246.81 345.737 247.421C341.777 254.049 333.182 261.568 328.805 265.993C316.421 278.554 309.755 273.415 300.458 246.833C295.63 233.016 275.348 227.992 252.646 254.763C244.593 264.263 174.569 322.042 184.865 364.822C199.634 426.18 266.474 412.957 266.474 412.957Z" stroke="#192039" stroke-width="2" stroke-miterlimit="22.93"/>
<path d="M424.356 391.251C375.464 389.338 316.985 282.014 316.495 279.033" stroke="#192039" stroke-width="2" stroke-miterlimit="22.93"/>
<path d="M397.733 299.102C393.818 290.881 361.243 272.633 350.166 257.355" stroke="#192039" stroke-width="2" stroke-miterlimit="22.93"/>
<path fill-rule="evenodd" clip-rule="evenodd" d="M284.308 412.456C225.761 413.814 219.489 457.28 208.737 480.397C204.405 489.692 140.373 634.287 137.086 641.932L182.548 679.191C182.548 679.191 301.937 529.229 306.223 529.229C306.394 529.229 370.408 530.245 373.787 530.245C451.475 530.245 456.811 447.956 419.311 413.58L284.308 412.456Z" fill="#E4EAFF" stroke="#192039" stroke-width="2" stroke-miterlimit="22.93"/>
<path d="M256.093 327.419C254.952 329.058 240.65 349.686 242.516 350.382C257.794 355.835 266.565 356.332 283.035 363.879C283.538 364.113 284.879 364.827 285.187 364.936" stroke="#192039" stroke-width="2" stroke-miterlimit="22.93"/>
<path fill-rule="evenodd" clip-rule="evenodd" d="M358.184 119.673C363.108 119.673 367.921 121.134 372.014 123.87C376.108 126.607 379.299 130.496 381.183 135.047C383.067 139.598 383.56 144.605 382.599 149.436C381.639 154.267 379.268 158.705 375.787 162.187C372.305 165.67 367.87 168.042 363.041 169.003C358.212 169.964 353.207 169.471 348.658 167.586C344.109 165.701 340.221 162.509 337.486 158.414C334.751 154.318 333.291 149.503 333.291 144.578C333.291 137.973 335.913 131.638 340.582 126.968C345.25 122.297 351.582 119.673 358.184 119.673Z" fill="#FFC947" stroke="#192039" stroke-width="2" stroke-miterlimit="22.93"/>
<path fill-rule="evenodd" clip-rule="evenodd" d="M315.542 227.752C321.026 231.583 343.602 234.872 349.515 211.298C354.862 189.973 342.096 203.573 335.299 180.107C333.541 174.078 326.379 163.134 316.312 169.694C298.033 181.615 298.404 218.332 315.542 227.752Z" fill="#E4EAFF" stroke="#192039" stroke-width="2" stroke-miterlimit="22.93"/>
<path d="M319.377 195.95C317.83 206.593 310.526 202.927 318.698 210.172" stroke="#192039" stroke-width="2" stroke-miterlimit="22.93"/>
<path d="M314.32 189.516C314.68 187.603 315.359 184.629 315.462 184.337" stroke="#192039" stroke-width="2" stroke-miterlimit="22.93"/>
<path d="M326.151 191.041C326.511 189.134 327.19 186.153 327.292 185.862" stroke="#192039" stroke-width="2" stroke-miterlimit="22.93"/>
<path fill-rule="evenodd" clip-rule="evenodd" d="M319.565 168.238C324.285 181.586 341.28 224.543 351.41 222.414C376.035 217.275 385.321 184.281 369.478 161.324C357.984 144.698 336.521 143.79 321.454 153.171C318.755 154.849 316.529 156.328 314.697 157.63C303.614 159.011 296.709 165.623 293.525 176.385C290.34 187.147 296.304 201.232 302.656 208.711C302.445 193.582 306.913 177.789 316.318 170.162C317.295 169.358 318.391 168.709 319.565 168.238Z" fill="#FFC947" stroke="#192039" stroke-width="2" stroke-miterlimit="22.93"/>
<path d="M323.692 166.576C326.813 162.139 333.445 161.888 338.347 168.243C338.518 168.465 338.404 168.437 338.661 168.562" stroke="#192039" stroke-width="2" stroke-miterlimit="22.93"/>
<path d="M319.931 178.594C317.916 181.449 313.653 181.62 310.48 177.521C310.371 177.378 310.446 177.395 310.28 177.315" stroke="#192039" stroke-width="2" stroke-miterlimit="22.93"/>
<path d="M281.996 529.148L310.942 529.285" stroke="#192039" stroke-width="2" stroke-miterlimit="22.93"/>
<path fill-rule="evenodd" clip-rule="evenodd" d="M315.319 378.759C315.319 378.707 323.309 382.036 329.353 383.435C341.012 386.124 339.876 395.053 334.632 396.229C333.199 396.555 324.667 397.754 323.509 396.652C321.226 394.499 309.179 388.995 315.074 382.081C315.063 382.07 315.063 382.081 315.319 378.759Z" fill="#E4EAFF" stroke="#192039" stroke-width="2" stroke-miterlimit="22.93"/>
<path fill-rule="evenodd" clip-rule="evenodd" d="M259.409 388.989C256.47 381.95 270.161 368.002 277.146 365.804C287.047 362.686 307.906 371.89 315.953 376.789C324.685 382.121 325.381 397.108 324.959 397.057C323.07 396.834 284.108 396.988 279.834 397.137C276.706 397.239 261.509 394.014 259.409 388.989Z" fill="#E4EAFF" stroke="#192039" stroke-width="2" stroke-miterlimit="22.93"/>
<path d="M352.112 395.921H182.605C177.593 395.921 173.531 399.985 173.531 404.999C173.531 410.012 177.593 414.077 182.605 414.077H352.112C357.124 414.077 361.186 410.012 361.186 404.999C361.186 399.985 357.124 395.921 352.112 395.921Z" fill="#192039" stroke="#192039" stroke-width="2" stroke-miterlimit="22.93"/>
<path d="M311.969 396.949C311.855 393.523 309.789 384.085 305.338 383.429" stroke="#192039" stroke-width="2" stroke-miterlimit="22.93"/>
<path d="M296.937 396.983C296.937 395.304 295.636 388.476 293.513 388.122" stroke="#192039" stroke-width="2" stroke-miterlimit="22.93"/>
<path fill-rule="evenodd" clip-rule="evenodd" d="M79.8795 280.198H262.501C266.536 280.198 270.742 283.498 271.855 287.529L304.544 406.106C305.657 410.137 303.266 413.437 299.231 413.437H116.609C112.58 413.437 108.368 410.137 107.256 406.106L74.572 287.529C73.4592 283.498 75.8447 280.198 79.8795 280.198Z" fill="#B5B7C1" stroke="#B5B7C1" stroke-width="2" stroke-miterlimit="22.93"/>
<path fill-rule="evenodd" clip-rule="evenodd" d="M175.596 333.038H185.515C189.55 333.038 193.716 336.338 194.777 340.368L197.385 350.28C198.447 354.311 196.016 357.611 191.987 357.611H182.091C178.062 357.611 173.896 354.311 172.834 350.28L170.226 340.368C169.136 336.338 171.561 333.038 175.596 333.038Z" fill="white"/>
<path fill-rule="evenodd" clip-rule="evenodd" d="M178.13 319.855C179.492 319.901 180.799 320.409 181.836 321.294C182.872 322.18 183.578 323.392 183.837 324.731C183.971 325.327 183.966 325.946 183.823 326.541C183.681 327.135 183.403 327.689 183.013 328.159C182.623 328.63 182.13 329.004 181.572 329.254C181.015 329.504 180.407 329.623 179.796 329.601C178.434 329.556 177.128 329.049 176.091 328.165C175.054 327.28 174.349 326.069 174.089 324.731C173.954 324.134 173.958 323.514 174.101 322.919C174.243 322.324 174.52 321.769 174.91 321.298C175.301 320.827 175.794 320.452 176.352 320.202C176.91 319.951 177.519 319.833 178.13 319.855Z" fill="white"/>
<path fill-rule="evenodd" clip-rule="evenodd" d="M0 154.707H183.797L208.246 251.257H24.4485L0 154.707Z" stroke="#192039" stroke-width="2" stroke-miterlimit="22.93"/>
<path fill-rule="evenodd" clip-rule="evenodd" d="M15.6371 165.046H83.2756L101.509 240.141H33.8707L15.6371 165.046Z" fill="#339966" stroke="#339966" stroke-width="2" stroke-miterlimit="22.93"/>
<path fill-rule="evenodd" clip-rule="evenodd" d="M84.3942 45.1609H268.192L292.64 141.717H108.843L84.3942 45.1609Z" fill="#5159A7"/>
<path fill-rule="evenodd" clip-rule="evenodd" d="M59.5059 20.3938H132.509L152.66 97.0932H79.657L59.5059 20.3938Z" fill="white" stroke="#192039" stroke-width="2" stroke-miterlimit="22.93"/>
<path d="M267.404 93.5989H188.3" stroke="white" stroke-width="2" stroke-miterlimit="22.93"/>
<path d="M267.923 102.095H221.554" stroke="white" stroke-width="2" stroke-miterlimit="22.93"/>
<path d="M270.549 109.962H222.918" stroke="white" stroke-width="2" stroke-miterlimit="22.93"/>
<path d="M217.708 123.739C231.405 170.944 211.858 199.782 161.084 200.987" stroke="#FFC947" stroke-width="2" stroke-miterlimit="22.93"/>
<path fill-rule="evenodd" clip-rule="evenodd" d="M153.328 201.278L157.723 197.749L162.117 194.227L163.88 201.597L165.638 208.962L159.48 205.12L153.328 201.278Z" fill="#FFC947" stroke="#FFC947" stroke-width="2" stroke-miterlimit="22.93"/>
<path d="M213.205 244.492L284.998 144.738" stroke="#192039" stroke-width="2" stroke-miterlimit="22.93" stroke-dasharray="5.16 7.75"/>
<path d="M67.7869 27.2102L144.38 90.2757" stroke="#192039" stroke-width="2" stroke-miterlimit="22.93"/>
<path d="M83.7324 91.1787L128.435 26.3091" stroke="#192039" stroke-width="2" stroke-miterlimit="22.93"/>
<path d="M251.391 22.6661L260.624 0L266.075 19.309L299.226 0L287.898 33.9992L316.01 37.7788L302.582 49.1176L315.171 61.7124L287.059 60.0338" stroke="#FFC947" stroke-width="2" stroke-miterlimit="22.93"/>
<path d="M38.4305 143.162L20.5964 72.0002H62.1371" stroke="#192039" stroke-width="2" stroke-miterlimit="22.93"/>
<path fill-rule="evenodd" clip-rule="evenodd" d="M38.3219 137.481C39.2355 137.48 40.1289 137.75 40.889 138.257C41.6492 138.764 42.2418 139.485 42.5919 140.33C42.9421 141.174 43.034 142.103 42.856 143C42.6781 143.896 42.2383 144.72 41.5922 145.366C40.9462 146.012 40.123 146.452 39.2269 146.63C38.3308 146.808 37.402 146.716 36.5581 146.366C35.7143 146.016 34.9933 145.423 34.4864 144.662C33.9795 143.902 33.7096 143.008 33.7107 142.094C33.7122 140.871 34.1985 139.699 35.063 138.834C35.9274 137.969 37.0994 137.482 38.3219 137.481Z" fill="#FF0000" stroke="#FF0000" stroke-width="2" stroke-miterlimit="22.93"/>
<path fill-rule="evenodd" clip-rule="evenodd" d="M60.4594 67.3875C61.3728 67.3875 62.2657 67.6585 63.025 68.1663C63.7844 68.674 64.3762 69.3958 64.7254 70.2401C65.0747 71.0844 65.1658 72.0134 64.9872 72.9095C64.8086 73.8056 64.3683 74.6286 63.7221 75.2744C63.0758 75.9201 62.2526 76.3596 61.3566 76.5371C60.4607 76.7147 59.5322 76.6224 58.6887 76.272C57.8451 75.9215 57.1245 75.3286 56.6178 74.5683C56.1112 73.8079 55.8414 72.9144 55.8425 72.0006C55.844 70.7766 56.3311 69.6032 57.1968 68.7383C58.0625 67.8733 59.2359 67.3875 60.4594 67.3875Z" fill="#FF0000" stroke="#FF0000" stroke-width="2" stroke-miterlimit="22.93"/>
<path fill-rule="evenodd" clip-rule="evenodd" d="M320.769 288.533L350.149 257.355C345.583 250.555 352.266 248.157 352.254 240.695C352.254 228.539 334.443 221.46 323.183 226.781C322.51 227.101 314.623 217.692 314.623 217.692C308.163 211.257 302.068 217.383 303.466 226.827C303.546 227.352 299.814 227.871 297.907 230.823C295.288 234.9 296.549 237.252 297.12 240.244C297.2 240.672 295.978 241.62 294.774 245.074C294.004 247.295 292.492 250.846 295.237 255.151C297.685 258.982 320.769 288.488 320.769 288.533Z" fill="#E4EAFF" stroke="#192039" stroke-width="2" stroke-miterlimit="22.93"/>
<path d="M322.579 226.353C323.72 227.883 333.507 238.274 333.519 238.342" stroke="#192039" stroke-width="2" stroke-miterlimit="22.93"/>
<path d="M303.506 226.838C305.962 229.948 308.58 232.927 311.348 235.762" stroke="#192039" stroke-width="2" stroke-miterlimit="22.93"/>
<path d="M297.159 240.267C295.91 240.192 301.423 245.862 301.885 246.319" stroke="#192039" stroke-width="2" stroke-miterlimit="22.93"/>
<path d="M321.152 218.765C321.066 213.181 329.615 219.553 329.615 213.41" stroke="#192039" stroke-width="2" stroke-miterlimit="22.93"/>
</g>
<defs>
<clipPath id="clip0_6_79">
<rect width="500" height="572" fill="white"/>
</clipPath>
</defs>
</svg>
