<svg width="34" height="34" viewBox="0 0 34 34" fill="none" xmlns="http://www.w3.org/2000/svg">
<path d="M14.5907 1.39715C16.0801 0.533142 17.9183 0.533142 19.4077 1.39715L24.3517 4.2651L29.3074 7.11274C30.8004 7.97063 31.7195 9.56251 31.7159 11.2844L31.7042 17L31.7159 22.7156C31.7195 24.4375 30.8004 26.0294 29.3074 26.8873L24.3517 29.7349L19.4077 32.6028C17.9183 33.4669 16.0801 33.4669 14.5907 32.6028L9.64671 29.7349L4.69101 26.8873C3.19802 26.0294 2.27895 24.4375 2.28248 22.7156L2.29421 17L2.28248 11.2844C2.27895 9.56251 3.19802 7.97063 4.69101 7.11274L9.64671 4.2651L14.5907 1.39715Z" fill="#FFD54B"/>
<path d="M19.1108 15.68C20.0574 15.96 20.8241 16.4533 21.4108 17.16C22.0108 17.8533 22.3108 18.6933 22.3108 19.68C22.3108 21.12 21.8241 22.2467 20.8508 23.06C19.8908 23.8733 18.7108 24.28 17.3108 24.28C16.2174 24.28 15.2374 24.0333 14.3708 23.54C13.5174 23.0333 12.8974 22.2933 12.5108 21.32L14.8708 19.96C15.2174 21.04 16.0308 21.58 17.3108 21.58C18.0174 21.58 18.5641 21.4133 18.9508 21.08C19.3508 20.7333 19.5508 20.2667 19.5508 19.68C19.5508 19.1067 19.3508 18.6467 18.9508 18.3C18.5641 17.9533 18.0174 17.78 17.3108 17.78H16.7108L15.6508 16.18L18.4108 12.58H12.9308V10H21.7308V12.28L19.1108 15.68Z" fill="white"/>
</svg>
