<svg width="34" height="34" viewBox="0 0 34 34" fill="none" xmlns="http://www.w3.org/2000/svg">
<path d="M14.5907 1.39715C16.0801 0.533142 17.9183 0.533142 19.4077 1.39715L24.3517 4.2651L29.3074 7.11274C30.8004 7.97063 31.7195 9.56251 31.7159 11.2844L31.7042 17L31.7159 22.7156C31.7195 24.4375 30.8004 26.0294 29.3074 26.8873L24.3517 29.7349L19.4077 32.6028C17.9183 33.4669 16.0801 33.4669 14.5907 32.6028L9.64671 29.7349L4.69101 26.8873C3.19802 26.0294 2.27895 24.4375 2.28248 22.7156L2.29421 17L2.28248 11.2844C2.27895 9.56251 3.19802 7.97063 4.69101 7.11274L9.64671 4.2651L14.5907 1.39715Z" fill="#FFD54B"/>
<path d="M12.7275 24V21.94L17.5075 17.02C18.5742 15.9 19.1075 14.9667 19.1075 14.22C19.1075 13.6733 18.9342 13.2333 18.5875 12.9C18.2542 12.5667 17.8208 12.4 17.2875 12.4C16.2342 12.4 15.4542 12.9467 14.9475 14.04L12.6275 12.68C13.0675 11.72 13.7008 10.9867 14.5275 10.48C15.3542 9.97333 16.2608 9.72 17.2475 9.72C18.5142 9.72 19.6008 10.12 20.5075 10.92C21.4142 11.7067 21.8675 12.7733 21.8675 14.12C21.8675 15.5733 21.1008 17.0667 19.5675 18.6L16.8275 21.34H22.0875V24H12.7275Z" fill="white"/>
</svg>
