<svg width="34" height="34" viewBox="0 0 34 34" fill="none" xmlns="http://www.w3.org/2000/svg">
<path d="M14.5907 1.39715C16.0801 0.533142 17.9183 0.533142 19.4077 1.39715L24.3517 4.2651L29.3074 7.11274C30.8004 7.97063 31.7195 9.56251 31.7159 11.2844L31.7042 17L31.7159 22.7156C31.7195 24.4375 30.8004 26.0294 29.3074 26.8873L24.3517 29.7349L19.4077 32.6028C17.9183 33.4669 16.0801 33.4669 14.5907 32.6028L9.64671 29.7349L4.69101 26.8873C3.19802 26.0294 2.27895 24.4375 2.28248 22.7156L2.29421 17L2.28248 11.2844C2.27895 9.56251 3.19802 7.97063 4.69101 7.11274L9.64671 4.2651L14.5907 1.39715Z" fill="#FFD54B"/>
<path d="M17.0328 9H19.4328V23H16.6728V11.92L14.0328 12.66L13.3528 10.3L17.0328 9Z" fill="white"/>
</svg>
