<svg width="24" height="24" viewBox="0 0 24 24" fill="none" xmlns="http://www.w3.org/2000/svg">
<path d="M3.64337 7.94061L3.52573 8.1H3.72383H20.2761H20.4742L20.3565 7.94061L17.7039 4.34676C17.4965 4.06581 17.1681 3.9 16.8189 3.9H7.18101C6.83181 3.9 6.50335 4.0658 6.29598 4.34676L3.64337 7.94061ZM3.78676 9.9H3.58408L3.7074 10.0608L11.127 19.7386C11.5673 20.3129 12.4326 20.3129 12.8729 19.7386L20.2925 10.0608L20.4158 9.9H20.2131H3.78676ZM19.1522 3.27783L22.0793 7.24358C22.8465 8.28311 22.8336 9.70485 22.0475 10.7302L14.3014 20.8337C13.1406 22.3478 10.8593 22.3478 9.69849 20.8337L1.95245 10.7302C1.16634 9.70485 1.15337 8.28311 1.92064 7.24358L4.84775 3.27783C5.39446 2.53712 6.26039 2.1 7.18101 2.1H16.8189C17.7395 2.1 18.6054 2.53712 19.1522 3.27783Z" fill="white" stroke="white" stroke-width="0.2"/>
</svg>
