<svg width="40" height="41" viewBox="0 0 40 41" fill="none" xmlns="http://www.w3.org/2000/svg">
<path d="M11.667 14C10.8386 14 10.167 14.6716 10.167 15.5C10.167 16.3284 10.8386 17 11.667 17H21.667C22.4954 17 23.167 16.3284 23.167 15.5C23.167 14.6716 22.4954 14 21.667 14H11.667Z" fill="#5159A7" stroke="#5159A7" stroke-width="0.5"/>
<path fill-rule="evenodd" clip-rule="evenodd" d="M31.5338 18.3337C30.9355 18.3337 30.4092 18.5657 30.0295 18.9557L30.007 18.9782C29.5637 19.411 29.316 20.0272 29.3783 20.6818L29.3797 20.6965C29.4678 21.7548 30.4853 22.667 31.7338 22.667H34.9718C35.2413 22.6495 35.4172 22.4388 35.4172 22.217V18.7837C35.4172 18.5617 35.2413 18.351 34.9718 18.3337H31.5338ZM28.2493 17.2002C29.1022 16.3306 30.2712 15.8337 31.5338 15.8337H35.0005C35.0155 15.8337 35.0303 15.8339 35.0452 15.8344C36.6335 15.8912 37.9172 17.1765 37.9172 18.7837V22.217C37.9172 23.8242 36.6335 25.1095 35.0452 25.1662C35.0303 25.1667 35.0155 25.167 35.0005 25.167H31.7338C29.3847 25.167 27.1045 23.4492 26.8888 20.9115C26.7543 19.4745 27.3013 18.132 28.2493 17.2002Z" fill="#5159A7"/>
<path d="M10.5414 7.9164L10.5414 7.91643L10.5449 7.91589C10.8981 7.86154 11.2717 7.83333 11.6668 7.83333H26.6668C27.0694 7.83333 27.3905 7.84961 27.6702 7.89623L27.6703 7.89624C27.6946 7.90028 27.719 7.90374 27.7436 7.90661C29.557 8.11748 30.9708 8.8789 31.9354 9.99664C32.9028 11.1176 33.5002 12.6928 33.5002 14.6667V15.5833H31.5335C30.2048 15.5833 28.972 16.1063 28.0721 17.0234C27.0745 18.0047 26.4979 19.4189 26.6395 20.9334C26.8682 23.6198 29.2757 25.4167 31.7335 25.4167H33.5002V26.3333C33.5002 28.4924 32.7871 30.1752 31.6479 31.3144C30.5087 32.4536 28.8259 33.1667 26.6668 33.1667H11.6668C9.50781 33.1667 7.82506 32.4536 6.68582 31.3144C5.54659 30.1752 4.8335 28.4924 4.8335 26.3333V14.6667C4.8335 12.7058 5.42073 11.1403 6.37301 10.023C7.32221 8.90937 8.71401 8.14623 10.5036 7.92165L10.5036 7.92167L10.507 7.9212L10.5414 7.9164ZM30.2064 19.1315L30.2081 19.1297C30.5404 18.7884 31.002 18.5833 31.5335 18.5833H35.0002C35.8286 18.5833 36.5002 17.9117 36.5002 17.0833V14.6667C36.5002 12.074 35.706 9.77412 34.2066 8.03666C32.7117 6.30431 30.5968 5.22612 28.1257 4.93087C27.6186 4.84954 27.1199 4.83333 26.6668 4.83333H11.6668C11.1359 4.83333 10.6164 4.87075 10.1095 4.94759C7.65805 5.2598 5.56573 6.34539 4.08983 8.07697C2.61286 9.80981 1.8335 12.0943 1.8335 14.6667V26.3333C1.8335 29.1741 2.78696 31.658 4.5645 33.4356C6.34204 35.2132 8.82603 36.1667 11.6668 36.1667H26.6668C29.5076 36.1667 31.9915 35.2132 33.7691 33.4356C35.5467 31.658 36.5002 29.1741 36.5002 26.3333V23.9167C36.5002 23.0883 35.8286 22.4167 35.0002 22.4167H31.7335C30.5982 22.4167 29.7045 21.588 29.6285 20.6754L29.6285 20.6754L29.628 20.6707L29.6267 20.6578C29.6267 20.6575 29.6267 20.6573 29.6266 20.657C29.5721 20.0817 29.7894 19.5392 30.1813 19.1567L30.1813 19.1568L30.1841 19.1539L30.2064 19.1315Z" fill="#5159A7" stroke="#5159A7" stroke-width="0.5"/>
</svg>
