<svg width="48" height="49" viewBox="0 0 48 49" fill="none" xmlns="http://www.w3.org/2000/svg">
<path d="M22.0025 28.8417C21.399 28.2382 20.4205 28.2382 19.8169 28.8417C19.2134 29.4452 19.2134 30.4238 19.8169 31.0273L22.1351 33.3455C22.4249 33.6353 22.818 33.7981 23.2279 33.7981C23.6377 33.7981 24.0309 33.6353 24.3207 33.3455L30.5025 27.1637C31.106 26.5602 31.106 25.5816 30.5025 24.9781C29.899 24.3746 28.9204 24.3746 28.3169 24.9781L23.2279 30.0671L22.0025 28.8417Z" fill="#5159A7"/>
<path fill-rule="evenodd" clip-rule="evenodd" d="M25.7219 6.54969C24.6165 6.10754 23.3835 6.10754 22.2781 6.54969L10.0909 11.4246C9.36232 11.716 8.63559 12.2168 8.07457 12.8416C7.52499 13.4537 7 14.3409 7 15.4043V24.5254C7 31.2517 10.3276 35.6975 13.9678 38.5021C17.5645 41.2732 21.5079 42.4869 23.0157 42.8792C23.6659 43.0483 24.3341 43.0483 24.9843 42.8792C26.492 42.4869 30.4354 41.2732 34.0322 38.5021C37.6723 35.6975 41 31.2517 41 24.5254V15.4043C41 14.3409 40.475 13.4537 39.9254 12.8416C39.3644 12.2168 38.6376 11.716 37.9091 11.4246L25.7219 6.54969ZM23.426 9.41952C23.7945 9.27215 24.2055 9.27213 24.574 9.41952L36.7611 14.2944C37.0477 14.409 37.3807 14.6339 37.6257 14.9067C37.8819 15.1922 37.9091 15.3743 37.9091 15.4043V19.1518L25.7219 14.277C24.6165 13.8348 23.3835 13.8348 22.2781 14.277L10.0909 19.1518V15.4043C10.0909 15.3743 10.118 15.1922 10.3744 14.9067C10.6193 14.6339 10.9523 14.409 11.2388 14.2944L23.426 9.41952ZM24.574 17.1468L37.9091 22.4808V24.5254C37.9091 30.0665 35.2259 33.6806 32.1458 36.0536C29.0221 38.4602 25.5359 39.5418 24.2059 39.8879C24.0661 39.9242 23.9339 39.9242 23.7941 39.8879C22.4641 39.5418 18.9778 38.4602 15.8542 36.0536C12.7741 33.6806 10.0909 30.0665 10.0909 24.5254V22.4808L23.426 17.1468C23.7945 16.9994 24.2055 16.9994 24.574 17.1468Z" fill="#5159A7"/>
</svg>
