<svg width="150" height="31" viewBox="0 0 150 31" fill="none" xmlns="http://www.w3.org/2000/svg">
<path d="M4.49141 7.48822L6.22812 8.35658C6.5478 8.49621 6.89566 8.55912 7.24396 8.54028C7.59226 8.52143 7.9313 8.42136 8.23401 8.24803L9.87524 7.17996C10.1576 6.97499 10.3875 6.70602 10.546 6.3951C10.7044 6.08419 10.787 5.74015 10.787 5.39116L10.6828 3.43303C10.6448 3.08686 10.526 2.75441 10.3359 2.46255C10.1459 2.1707 9.88991 1.92756 9.58864 1.75276L7.85194 0.862705C7.5329 0.721424 7.18504 0.657253 6.83657 0.675358C6.4881 0.693463 6.14875 0.793323 5.84604 0.966907L4.2049 2.03498C3.92299 2.24047 3.69349 2.50953 3.5351 2.82036C3.37667 3.13114 3.29374 3.47497 3.29309 3.82378L3.39729 5.78192C3.43103 6.13282 3.54786 6.47061 3.73812 6.76732C3.92838 7.06408 4.18662 7.31121 4.49141 7.48822Z" fill="#101839"/>
<path d="M14.9673 10.0235L13.2306 9.13341C12.9117 8.99382 12.5645 8.93096 12.2169 8.9498C11.8693 8.96864 11.531 9.06872 11.229 9.24196L9.57046 10.31C9.28959 10.5165 9.06082 10.7858 8.90252 11.0964C8.74422 11.4069 8.66069 11.7502 8.65869 12.0988L8.76294 14.057C8.80093 14.4032 8.91972 14.7356 9.10976 15.0275C9.29984 15.3193 9.55579 15.5625 9.85702 15.7372L11.5937 16.6056C11.9121 16.7468 12.2592 16.811 12.607 16.7929C12.9548 16.7748 13.2933 16.6749 13.5953 16.5014L15.2408 15.4333C15.5218 15.2259 15.7505 14.9559 15.9088 14.6446C16.0671 14.3333 16.1506 13.9894 16.1526 13.6402L16.0484 11.6864C16.0085 11.3446 15.8902 11.0167 15.7027 10.7282C15.5152 10.4398 15.2635 10.1986 14.9673 10.0235Z" fill="#101839"/>
<path d="M20.3262 18.2819L18.5895 17.4135C18.2704 17.2722 17.9226 17.208 17.5741 17.2261C17.2257 17.2442 16.8863 17.3441 16.5836 17.5177L14.9425 18.5858C14.661 18.7917 14.4319 19.0609 14.2736 19.3716C14.1152 19.6823 14.032 20.0259 14.0306 20.3746L14.1349 22.3327C14.1764 22.6734 14.296 22.9998 14.4843 23.2867C14.6725 23.5736 14.9244 23.8132 15.2203 23.987L16.957 24.8553C17.2767 24.9949 17.6245 25.0578 17.9728 25.039C18.3211 25.0201 18.6602 24.92 18.9629 24.7468L20.6084 23.6787C20.8895 23.4727 21.1182 23.2034 21.2758 22.8927C21.4335 22.5819 21.5157 22.2384 21.5159 21.8899L21.4247 19.9665C21.3872 19.619 21.2682 19.2853 21.0773 18.9925C20.8864 18.6998 20.629 18.4563 20.3262 18.2819Z" fill="#101839"/>
<path d="M7.53061 13.4188L7.44812 11.8948C7.45012 11.5462 7.53361 11.2029 7.69195 10.8923C7.85025 10.5817 8.07897 10.3124 8.35989 10.106L11.5598 8.0263C11.8617 7.85306 12.2 7.75298 12.5476 7.73414C12.8952 7.7153 13.2424 7.77821 13.5613 7.91775L14.9246 8.61243C15.2437 8.75371 15.5915 8.81793 15.94 8.79983C16.2885 8.78172 16.6278 8.68182 16.9305 8.50823L18.5717 7.43582C18.8533 7.23011 19.0826 6.961 19.241 6.65022C19.3994 6.33948 19.4825 5.99583 19.4835 5.64701L19.3793 3.69322C19.3419 3.34627 19.2234 3.01296 19.0333 2.72032C18.8432 2.42765 18.5869 2.18386 18.2851 2.00862L16.5484 1.11856C16.2288 0.978975 15.8809 0.916062 15.5326 0.934906C15.1843 0.953749 14.8453 1.05383 14.5425 1.22711L12.8666 2.27781C12.5855 2.48378 12.3569 2.75306 12.1992 3.06384C12.0416 3.37463 11.9593 3.71815 11.9592 4.06662L12.0374 5.59057C12.0372 5.93908 11.9549 6.2826 11.7973 6.59339C11.6396 6.90417 11.411 7.17345 11.1299 7.37937L7.93005 9.45908C7.62735 9.63266 7.28804 9.73256 6.93957 9.75067C6.59106 9.76877 6.24324 9.70456 5.92416 9.56328L4.56519 8.87294C4.24612 8.73166 3.8983 8.66749 3.54979 8.68559C3.20132 8.7037 2.86201 8.80356 2.5593 8.97714L0.918116 10.0452C0.636206 10.2507 0.406745 10.5198 0.248314 10.8306C0.0898833 11.1414 0.00699892 11.4852 0.00634766 11.834L0.110549 13.7921C0.147541 14.1392 0.26594 14.4727 0.456022 14.7654C0.646148 15.0581 0.902616 15.3018 1.20467 15.4768L2.94137 16.3451C3.26101 16.4847 3.60888 16.5476 3.95717 16.5288C4.30547 16.51 4.64456 16.4099 4.94727 16.2366L6.58845 15.1685C6.87049 14.9699 7.10238 14.7085 7.26594 14.4048C7.42945 14.1011 7.52006 13.7635 7.53061 13.4188Z" fill="#101839"/>
<path d="M24.7197 11.9516C24.681 11.605 24.562 11.2722 24.372 10.9797C24.182 10.6873 23.9264 10.4432 23.6256 10.267L21.8889 9.39861C21.5691 9.25932 21.2213 9.19659 20.8731 9.21543C20.5248 9.23427 20.1858 9.33418 19.883 9.50715L18.2417 10.5752C17.9604 10.7812 17.7313 11.0503 17.5729 11.361C17.4145 11.6717 17.3313 12.0153 17.33 12.364L17.4125 13.8923C17.4112 14.241 17.328 14.5846 17.1696 14.8953C17.0112 15.206 16.7821 15.4752 16.5007 15.6811L13.3052 17.7565C13.0025 17.9298 12.6634 18.0298 12.3151 18.0487C11.9668 18.0675 11.619 18.0046 11.2993 17.865L9.93596 17.1704C9.61706 17.0308 9.26989 16.9679 8.92229 16.9867C8.57469 17.0056 8.23638 17.1056 7.93441 17.2789L6.27586 18.3426C5.99499 18.5491 5.76627 18.8183 5.60793 19.1289C5.44963 19.4395 5.36613 19.7828 5.36414 20.1314L5.46829 22.0895C5.50633 22.4357 5.62512 22.7682 5.81516 23.06C6.00524 23.3519 6.26119 23.595 6.56246 23.7698L8.29916 24.6599C8.61746 24.8011 8.96458 24.8653 9.31236 24.8472C9.66017 24.8291 9.99874 24.7292 10.3007 24.5556L11.9462 23.4876C12.2268 23.2809 12.4554 23.0116 12.6137 22.7011C12.772 22.3905 12.8556 22.0473 12.858 21.6988L12.7755 20.1705C12.7765 19.8217 12.8595 19.478 13.0179 19.1673C13.1763 18.8565 13.4056 18.5874 13.6872 18.3817L16.8828 16.302C17.1855 16.1284 17.5248 16.0285 17.8733 16.0104C18.2218 15.9923 18.5696 16.0565 18.8887 16.1978L20.2476 16.8881C20.5667 17.0294 20.9146 17.0936 21.263 17.0755C21.6115 17.0574 21.9508 16.9575 22.2535 16.7839L23.8991 15.7159C24.1799 15.5096 24.4084 15.2403 24.566 14.9296C24.7236 14.6189 24.806 14.2754 24.8065 13.9271L24.7197 11.9516Z" fill="#101839"/>
<path d="M30.5499 4.12446H37.0587L40.1115 16.4797L43.1643 4.12446H49.9611L43.7691 23.9389H36.4251L30.5499 4.12446Z" fill="#101839"/>
<path d="M56.3511 24.1693C54.7383 24.1693 53.4807 23.6509 52.5783 22.6141C51.6759 21.5773 51.2247 20.1661 51.2247 18.3805V9.51006H57.3303V18.1213C57.3303 18.5629 57.4455 18.9085 57.6759 19.1581C57.9255 19.3885 58.2423 19.5037 58.6263 19.5037C59.0103 19.5037 59.4039 19.3885 59.8071 19.1581L60.1239 23.1613C59.7015 23.4877 59.1447 23.7373 58.4535 23.9101C57.7815 24.0829 57.0807 24.1693 56.3511 24.1693ZM54.2775 7.35006C53.3751 7.35006 52.6071 7.07166 51.9735 6.51486C51.3591 5.93886 51.0519 5.23806 51.0519 4.41246C51.0519 3.58686 51.3783 2.89566 52.0311 2.33886C52.6839 1.78206 53.4327 1.50366 54.2775 1.50366C55.1607 1.50366 55.9191 1.79166 56.5527 2.36766C57.2055 2.94366 57.5319 3.62526 57.5319 4.41246C57.5319 5.25726 57.2055 5.95806 56.5527 6.51486C55.8999 7.07166 55.1415 7.35006 54.2775 7.35006Z" fill="#101839"/>
<path d="M61.8011 9.71166H67.8779V12.6493C68.3195 11.5165 68.9147 10.6813 69.6635 10.1437C70.4315 9.58686 71.3243 9.30846 72.3419 9.30846L73.1771 14.0029C71.3531 14.0029 70.0091 14.2045 69.1451 14.6077C68.3003 14.9917 67.8779 15.6061 67.8779 16.4509V23.9389H61.8011V9.71166Z" fill="#101839"/>
<path d="M82.2286 24.1693C80.6158 24.1693 79.1758 23.8525 77.9086 23.2189C76.6606 22.5853 75.6814 21.7117 74.971 20.5981C74.2798 19.4653 73.9342 18.1693 73.9342 16.7101C73.9342 15.2509 74.2894 13.9645 74.9998 12.8509C75.7102 11.7181 76.6894 10.8445 77.9374 10.2301C79.2046 9.61566 80.6446 9.30846 82.2574 9.30846C83.8894 9.30846 85.3294 9.62526 86.5774 10.2589C87.8446 10.8733 88.8238 11.7373 89.515 12.8509C90.2062 13.9645 90.5518 15.2509 90.5518 16.7101C90.5518 18.1885 90.1966 19.4941 89.4862 20.6269C88.795 21.7405 87.8158 22.6141 86.5486 23.2477C85.3006 23.8621 83.8606 24.1693 82.2286 24.1693ZM82.2862 19.8493C83.0734 19.8493 83.7166 19.5613 84.2158 18.9853C84.7342 18.3901 84.9934 17.6317 84.9934 16.7101C84.9934 15.7885 84.7342 15.0397 84.2158 14.4637C83.7166 13.8685 83.0734 13.5709 82.2862 13.5709C81.499 13.5709 80.8462 13.8685 80.3278 14.4637C79.8286 15.0397 79.579 15.7885 79.579 16.7101C79.579 17.6317 79.8286 18.3901 80.3278 18.9853C80.8462 19.5613 81.499 19.8493 82.2862 19.8493Z" fill="#101839"/>
<path d="M100.861 30.5341C99.8049 30.5341 98.7969 30.4285 97.8369 30.2173L98.2977 25.9549C99.0465 26.0701 99.7377 26.1277 100.371 26.1277C101.562 26.1277 102.464 25.7725 103.078 25.0621C103.693 24.3709 104.058 23.1997 104.173 21.5485C103.04 23.1421 101.312 23.9389 98.9889 23.9389C97.7217 23.9389 96.5505 23.6125 95.4753 22.9597C94.4193 22.3069 93.5745 21.4237 92.9409 20.3101C92.3265 19.1965 92.0193 17.9773 92.0193 16.6525C92.0193 15.3085 92.3265 14.0797 92.9409 12.9661C93.5553 11.8333 94.3905 10.9405 95.4465 10.2877C96.5217 9.63486 97.6929 9.30846 98.9601 9.30846C100.131 9.30846 101.149 9.61566 102.013 10.2301C102.896 10.8253 103.472 11.6317 103.741 12.6493V9.30846H109.818V20.2813C109.818 23.6413 109.05 26.1853 107.514 27.9133C105.997 29.6605 103.779 30.5341 100.861 30.5341ZM100.861 19.6189C101.629 19.6189 102.291 19.3501 102.848 18.8125C103.405 18.2557 103.702 17.6029 103.741 16.8541V16.6237C103.702 15.8941 103.395 15.2509 102.819 14.6941C102.262 14.1373 101.61 13.8589 100.861 13.8589C100.074 13.8589 99.4017 14.1469 98.8449 14.7229C98.2881 15.2797 98.0097 15.9517 98.0097 16.7389C98.0097 17.5261 98.2881 18.2077 98.8449 18.7837C99.4017 19.3405 100.074 19.6189 100.861 19.6189Z" fill="#101839"/>
<path d="M119.1 24.1693C117.852 24.1693 116.681 23.8429 115.587 23.1901C114.511 22.5181 113.647 21.6157 112.995 20.4829C112.342 19.3309 112.015 18.0541 112.015 16.6525C112.015 15.2701 112.342 14.0221 112.995 12.9085C113.647 11.7757 114.521 10.8925 115.615 10.2589C116.71 9.62526 117.871 9.30846 119.1 9.30846C120.099 9.30846 121.02 9.58686 121.865 10.1437C122.729 10.7005 123.382 11.5357 123.823 12.6493V9.30846H129.871V23.9389H123.823V21.2605C122.863 23.1997 121.289 24.1693 119.1 24.1693ZM120.972 19.6189C121.74 19.6189 122.393 19.3501 122.931 18.8125C123.487 18.2557 123.785 17.6029 123.823 16.8541V16.6237C123.785 15.8557 123.478 15.2029 122.902 14.6653C122.345 14.1277 121.702 13.8589 120.972 13.8589C120.166 13.8589 119.475 14.1469 118.899 14.7229C118.342 15.2797 118.063 15.9517 118.063 16.7389C118.063 17.5453 118.351 18.2269 118.927 18.7837C119.503 19.3405 120.185 19.6189 120.972 19.6189Z" fill="#101839"/>
<path d="M132.789 9.71166H138.577V12.6493C139.691 10.4221 141.457 9.30846 143.877 9.30846C145.72 9.30846 147.16 9.97086 148.197 11.2957C149.253 12.6013 149.781 14.4157 149.781 16.7389V23.9389H143.733V16.1341C143.733 15.3085 143.55 14.6749 143.185 14.2333C142.84 13.7917 142.35 13.5709 141.717 13.5709C141.256 13.5709 140.805 13.7245 140.363 14.0317C139.921 14.3197 139.557 14.7421 139.269 15.2989C139 15.8557 138.865 16.4893 138.865 17.1997V23.9389H132.789V9.71166Z" fill="#101839"/>
</svg>
