<svg width="151" height="33" viewBox="0 0 151 33" fill="none" xmlns="http://www.w3.org/2000/svg">
<path d="M17.7888 6.30812L18.9785 5.11846C21.3146 2.78228 25.118 2.72446 27.4676 5.04718C28.3579 5.92926 28.9496 7.06807 29.1595 8.30365C29.3694 9.53925 29.1869 10.8095 28.6377 11.9361C28.3743 12.4742 28.2856 13.0812 28.3838 13.6723C28.4821 14.2633 28.7625 14.8089 29.1859 15.2328C29.9646 14.4524 30.5817 13.5262 31.0022 12.5072C31.4227 11.4882 31.6384 10.3964 31.6369 9.294C31.6352 8.19166 31.4166 7.10041 30.9931 6.08261C30.5697 5.0648 29.9499 4.14039 29.1691 3.36219C25.8836 0.095184 20.5505 0.160197 17.2742 3.43639L5.93473 14.7756L5.00252 13.8433C2.62672 11.4675 2.61157 7.58406 5.02929 5.25047C5.92422 4.38935 7.06438 3.82721 8.2924 3.64166C9.52043 3.4561 10.7758 3.65628 11.8852 4.21455C12.3915 4.47404 12.967 4.56686 13.5292 4.47977C14.0915 4.39269 14.6119 4.13014 15.016 3.72963L15.0449 3.70087C15.0539 3.69194 15.0611 3.68131 15.066 3.66959C15.0708 3.65789 15.0733 3.64533 15.0733 3.63265C15.0733 3.61997 15.0708 3.60741 15.066 3.5957C15.0611 3.584 15.0539 3.57337 15.0449 3.56442C13.4842 2.04291 11.3928 1.18828 9.21314 1.18137C7.03351 1.17446 4.93667 2.01582 3.36634 3.5274C-0.0163264 6.79289 -0.00423863 12.2231 3.32044 15.5478L14.6566 26.8839L13.4524 28.0881C11.1162 30.4242 7.3127 30.4821 4.96321 28.1593C4.0729 27.2773 3.48125 26.1384 3.27136 24.9029C3.06148 23.6673 3.24388 22.3971 3.79297 21.2704C4.05641 20.7323 4.14519 20.1253 4.04694 19.5343C3.94867 18.9433 3.66826 18.3976 3.24488 17.9737C2.4663 18.7542 1.84911 19.6803 1.42858 20.6992C1.00804 21.7183 0.792391 22.8101 0.793954 23.9125C0.795516 25.0149 1.01426 26.1062 1.43768 27.1239C1.86111 28.1417 2.48092 29.0662 3.2617 29.8443C6.54707 33.1115 11.8803 33.0466 15.1566 29.7703L26.5108 18.416L27.4465 19.3517C29.7827 21.6879 29.8405 25.4912 27.5178 27.8407C26.6358 28.7311 25.4969 29.3227 24.2613 29.5327C23.0258 29.7426 21.7555 29.5601 20.6289 29.0109C20.0906 28.7474 19.4833 28.6585 18.892 28.757C18.3008 28.8554 17.755 29.1361 17.3311 29.5598C18.1116 30.3384 19.0377 30.9557 20.0566 31.3762C21.0757 31.7967 22.1675 32.0124 23.2699 32.0109C24.3722 32.0092 25.4635 31.7904 26.4813 31.367C27.4991 30.9436 28.4235 30.3237 29.2017 29.543C32.4689 26.2576 32.4039 20.9244 29.1277 17.6482L17.7888 6.30812ZM16.3493 25.1903L7.62797 16.4689L16.0954 8.00167L24.8168 16.723L16.3493 25.1903Z" fill="#101839"/>
<path d="M46.115 26.7173C44.3795 26.7173 43.0528 26.2081 42.1348 25.1898C41.2241 24.1714 40.7149 22.7802 40.6073 21.016L43.3611 20.3276C43.4974 23.0814 44.4153 24.4583 46.115 24.4583C47.4919 24.4583 48.1804 23.7698 48.1804 22.3929C48.1804 21.9842 48.123 21.6077 48.0082 21.2634C47.9007 20.912 47.7321 20.5929 47.5027 20.306C47.2732 20.012 47.0652 19.7789 46.8787 19.6068C46.6923 19.4275 46.4377 19.2088 46.115 18.9506L42.6727 16.1968C42.0416 15.702 41.536 15.0745 41.1559 14.3143C40.783 13.547 40.5966 12.6756 40.5966 11.7003C40.5966 10.2804 41.0376 9.15087 41.9197 8.31181C42.8018 7.47275 43.9707 7.05322 45.4265 7.05322C46.9899 7.05322 48.2306 7.43689 49.1485 8.20424C50.0736 8.96441 50.6437 10.0437 50.8589 11.4421C50.8804 11.5927 50.9055 11.8007 50.9342 12.0661L48.1804 12.7545C48.1732 12.6326 48.1553 12.4497 48.1266 12.2059C48.0047 11.331 47.7286 10.6318 47.2983 10.1083C46.8752 9.57757 46.2512 9.31223 45.4265 9.31223C44.7667 9.31223 44.2576 9.49868 43.899 9.8716C43.5404 10.2373 43.3611 10.7501 43.3611 11.4099C43.3611 12.4928 43.8201 13.3999 44.7381 14.1314L48.1804 16.8853C50.0162 18.3697 50.9342 20.1447 50.9342 22.2101C50.9342 23.6228 50.4967 24.7272 49.6218 25.5233C48.7541 26.3193 47.5851 26.7173 46.115 26.7173Z" fill="#101839"/>
<path d="M56.6893 24.4583C57.4136 24.4583 58.102 24.2718 58.7546 23.8989V15.3793C58.726 15.3649 58.6542 15.3219 58.5395 15.2502C58.4248 15.1785 58.3423 15.1318 58.2921 15.1103C58.2491 15.0816 58.1738 15.0386 58.0662 14.9812C57.9586 14.9239 57.869 14.8844 57.7973 14.8629C57.7327 14.8342 57.6467 14.8055 57.5391 14.7769C57.4387 14.741 57.3383 14.7159 57.2379 14.7016C57.1446 14.6872 57.0442 14.68 56.9367 14.68C56.7072 14.68 56.5028 14.7338 56.3235 14.8414C56.1514 14.9418 56.008 15.0637 55.8932 15.2071C55.7785 15.3506 55.6781 15.555 55.592 15.8203C55.5131 16.0856 55.4558 16.3223 55.4199 16.5303C55.3841 16.7311 55.3554 17.0036 55.3339 17.3478C55.3123 17.6849 55.298 17.9466 55.2908 18.1331C55.2908 18.3195 55.2908 18.5813 55.2908 18.9184C55.2908 18.9327 55.2908 18.9435 55.2908 18.9506C55.2908 19.0726 55.2908 19.2698 55.2908 19.5423C55.2908 19.8148 55.2908 20.0766 55.2908 20.3276C55.2908 20.5786 55.2908 20.8152 55.2908 21.0375C55.298 21.518 55.3195 21.9411 55.3554 22.3069C55.3984 22.6654 55.4665 23.0204 55.5598 23.3718C55.6602 23.7161 55.8036 23.985 55.99 24.1786C56.1837 24.3651 56.4167 24.4583 56.6893 24.4583ZM58.7546 30.6544V25.2866C58.3459 25.7097 57.9228 26.0539 57.4853 26.3193C57.055 26.5846 56.5602 26.7173 56.0008 26.7173C55.4701 26.7173 54.9968 26.5846 54.5809 26.3193C54.1721 26.0468 53.8422 25.699 53.5912 25.2758C53.3474 24.8527 53.143 24.3543 52.978 23.7806C52.8203 23.1997 52.7091 22.6296 52.6446 22.0702C52.5872 21.5108 52.5585 20.93 52.5585 20.3276V18.2299C52.5585 17.606 52.5872 17.0359 52.6446 16.5195C52.7019 16.0032 52.8059 15.494 52.9565 14.992C53.1071 14.49 53.3043 14.0669 53.5482 13.7227C53.7992 13.3713 54.1291 13.0916 54.5378 12.8836C54.9466 12.6685 55.4199 12.5609 55.9578 12.5609C56.2661 12.5609 56.553 12.6039 56.8183 12.69C57.0909 12.7689 57.349 12.8979 57.5929 13.0772C57.8439 13.2565 58.0375 13.4143 58.1738 13.5505C58.3172 13.6796 58.5108 13.8733 58.7546 14.1314V12.7545H61.5085V30.6544H58.7546Z" fill="#101839"/>
<path d="M65.6822 26.7173C65.0798 26.7173 64.5958 26.5057 64.23 26.0826C63.8643 25.6523 63.6814 25.1217 63.6814 24.4906V12.7545H66.4352V23.6515C66.4352 23.9384 66.5213 24.1714 66.6934 24.3507C66.8727 24.53 67.1022 24.6197 67.3819 24.6197C67.5325 24.6197 67.6795 24.6017 67.8229 24.5659C67.9663 24.53 68.1062 24.4691 68.2424 24.383C68.3859 24.2898 68.497 24.2181 68.5759 24.1679C68.6548 24.1105 68.766 24.0173 68.9094 23.8882C69.06 23.7591 69.1532 23.6802 69.1891 23.6515V12.7545H71.9429V26.5237H69.1891V25.0392C68.9166 25.2758 68.7158 25.448 68.5867 25.5555C68.4648 25.6631 68.2747 25.8101 68.0165 25.9966C67.7584 26.1759 67.5289 26.3085 67.3281 26.3946C67.1345 26.4735 66.8906 26.5452 66.5966 26.6097C66.3026 26.6814 65.9978 26.7173 65.6822 26.7173Z" fill="#101839"/>
<path d="M78.1175 24.4583C78.3111 24.4583 78.4976 24.4009 78.6769 24.2862C78.8633 24.1714 79.0032 24.0603 79.0964 23.9527C79.1896 23.8451 79.3044 23.7017 79.4406 23.5224C79.4622 23.4866 79.4801 23.4615 79.4944 23.4471V19.6391C79.3797 19.718 79.1896 19.8399 78.9243 20.0048C78.659 20.1698 78.4474 20.306 78.2896 20.4136C78.1319 20.514 77.9418 20.6574 77.7195 20.8439C77.4972 21.0232 77.3251 21.1989 77.2032 21.371C77.0812 21.5359 76.9737 21.7403 76.8804 21.9842C76.7872 22.228 76.7406 22.4826 76.7406 22.7479C76.7406 23.8882 77.1996 24.4583 78.1175 24.4583ZM76.7406 26.7173C75.9733 26.7173 75.3207 26.3874 74.7828 25.7276C74.2521 25.0607 73.9868 24.3113 73.9868 23.4794C73.9868 22.8125 74.0979 22.2065 74.3202 21.6614C74.5497 21.1164 74.79 20.6825 75.041 20.3598C75.292 20.0299 75.7115 19.6929 76.2996 19.3487C76.8876 18.9973 77.3322 18.757 77.6334 18.6279C77.9346 18.4988 78.4582 18.2873 79.204 17.9932C79.3331 17.943 79.4299 17.9036 79.4944 17.8749V16.8853C79.4944 16.1896 79.3976 15.6518 79.204 15.2717C79.0104 14.8844 78.6482 14.6908 78.1175 14.6908C77.6442 14.6908 77.3036 14.8557 77.0956 15.1856C76.8948 15.5083 76.78 15.9566 76.7514 16.5303C76.7442 16.6092 76.7406 16.7275 76.7406 16.8853H73.9868C74.0011 15.5657 74.3704 14.5151 75.0948 13.7334C75.8191 12.9517 76.8267 12.5609 78.1175 12.5609C79.4012 12.5609 80.4088 12.9589 81.1403 13.7549C81.8789 14.5438 82.2483 15.5872 82.2483 16.8853V23.0814C82.2483 24.5157 82.3666 25.6631 82.6033 26.5237H79.8602L79.4944 24.4583C79.351 24.7452 79.2327 24.9675 79.1394 25.1252C79.0534 25.283 78.9243 25.4802 78.7522 25.7169C78.5801 25.9464 78.408 26.1257 78.2358 26.2547C78.0637 26.3767 77.8486 26.4842 77.5904 26.5775C77.3322 26.6707 77.049 26.7173 76.7406 26.7173Z" fill="#101839"/>
<path d="M84.6256 26.5237V12.7545H87.3794V14.594C87.6591 14.049 88.0643 13.5756 88.595 13.174C89.1328 12.7653 89.7281 12.5609 90.3807 12.5609C90.4022 12.5609 90.5492 12.5752 90.8217 12.6039V15.6482C90.3125 15.4474 89.8034 15.347 89.2942 15.347C88.7205 15.347 88.2579 15.5191 87.9065 15.8633C87.5551 16.2076 87.3794 16.6629 87.3794 17.2295V26.5237H84.6256Z" fill="#101839"/>
<path d="M95.8776 26.7173C95.2106 26.7173 94.6298 26.6026 94.1349 26.3731C93.6473 26.1436 93.2564 25.846 92.9624 25.4802C92.6755 25.1073 92.4425 24.634 92.2632 24.0603C92.0839 23.4794 91.9584 22.9021 91.8867 22.3284C91.8221 21.7475 91.7827 21.0734 91.7684 20.306C91.7468 19.7036 91.7468 19.1012 91.7684 18.4988C91.7899 17.7817 91.8365 17.147 91.9082 16.5948C91.9871 16.0354 92.1198 15.494 92.3062 14.9705C92.4927 14.447 92.7329 14.0167 93.0269 13.6796C93.3281 13.3426 93.719 13.0736 94.1995 12.8728C94.6871 12.6649 95.2537 12.5609 95.8991 12.5609C96.4872 12.5609 97.0035 12.6398 97.4481 12.7975C97.8999 12.9481 98.2728 13.1812 98.5669 13.4968C98.8681 13.8051 99.1155 14.1494 99.3091 14.5294C99.5099 14.9095 99.6605 15.3721 99.7609 15.9171C99.8613 16.455 99.9294 16.9857 99.9653 17.5092C100.008 18.0327 100.03 18.6351 100.03 19.3164V19.6391H94.5222V20.3276C94.5222 20.4208 94.5222 20.5678 94.5222 20.7686C94.5078 21.0339 94.5043 21.31 94.5114 21.5969C94.5258 21.8766 94.5401 22.1527 94.5545 22.4252C94.5688 22.6977 94.6082 22.9595 94.6728 23.2105C94.7373 23.4543 94.8162 23.6694 94.9094 23.8559C95.0027 24.0424 95.1318 24.1894 95.2967 24.2969C95.4688 24.4045 95.6696 24.4583 95.8991 24.4583C96.186 24.4583 96.4226 24.4045 96.6091 24.2969C96.7955 24.1822 96.9318 24.0137 97.0178 23.7914C97.1111 23.569 97.1756 23.3467 97.2115 23.1244C97.2473 22.9021 97.2688 22.6224 97.276 22.2854V21.7045H100.008V22.2531C99.9438 23.7232 99.5816 24.8348 98.9219 25.5878C98.2621 26.3408 97.2473 26.7173 95.8776 26.7173ZM94.5222 18.2622H97.2545V17.4339C97.2473 17.0681 97.2258 16.749 97.19 16.4765C97.1541 16.204 97.0896 15.9315 96.9963 15.6589C96.9103 15.3864 96.774 15.1785 96.5876 15.035C96.4011 14.8916 96.1716 14.8199 95.8991 14.8199C95.6194 14.8199 95.3828 14.8952 95.1891 15.0458C95.0027 15.1964 94.8628 15.4151 94.7696 15.702C94.6835 15.9817 94.6226 16.2578 94.5867 16.5303C94.5509 16.8028 94.5294 17.1291 94.5222 17.5092V18.2622Z" fill="#101839"/>
<path d="M107.173 26.7173C105.437 26.7173 104.11 26.2081 103.192 25.1898C102.282 24.1714 101.773 22.7802 101.665 21.016L104.419 20.3276C104.555 23.0814 105.473 24.4583 107.173 24.4583C108.55 24.4583 109.238 23.7698 109.238 22.3929C109.238 21.9842 109.181 21.6077 109.066 21.2634C108.958 20.912 108.79 20.5929 108.56 20.306C108.331 20.012 108.123 19.7789 107.936 19.6068C107.75 19.4275 107.495 19.2088 107.173 18.9506L103.73 16.1968C103.099 15.702 102.594 15.0745 102.214 14.3143C101.841 13.547 101.654 12.6756 101.654 11.7003C101.654 10.2804 102.095 9.15087 102.977 8.31181C103.859 7.47275 105.028 7.05322 106.484 7.05322C108.048 7.05322 109.288 7.43689 110.206 8.20424C111.131 8.96441 111.701 10.0437 111.917 11.4421C111.938 11.5927 111.963 11.8007 111.992 12.0661L109.238 12.7545C109.231 12.6326 109.213 12.4497 109.184 12.2059C109.062 11.331 108.786 10.6318 108.356 10.1083C107.933 9.57757 107.309 9.31223 106.484 9.31223C105.824 9.31223 105.315 9.49868 104.957 9.8716C104.598 10.2373 104.419 10.7501 104.419 11.4099C104.419 12.4928 104.878 13.3999 105.796 14.1314L109.238 16.8853C111.074 18.3697 111.992 20.1447 111.992 22.2101C111.992 23.6228 111.554 24.7272 110.679 25.5233C109.812 26.3193 108.643 26.7173 107.173 26.7173Z" fill="#101839"/>
<path d="M117.704 26.7173C116.621 26.7173 115.832 26.4412 115.337 25.889C114.85 25.3368 114.599 24.5013 114.584 23.3826V14.8199H113.207V12.7545H114.584V7.93531H117.338V12.7545H119.403V14.8199H117.338V22.8555C117.338 23.4077 117.413 23.8129 117.564 24.071C117.715 24.3292 118.019 24.4583 118.478 24.4583C118.679 24.4583 118.988 24.4224 119.403 24.3507V26.5882C118.715 26.6743 118.148 26.7173 117.704 26.7173Z" fill="#101839"/>
<path d="M128.375 25.4264C127.737 26.287 126.679 26.7173 125.202 26.7173C123.724 26.7173 122.666 26.287 122.028 25.4264C121.39 24.5659 121.071 23.3252 121.071 21.7045V17.5737C121.071 15.953 121.39 14.7123 122.028 13.8517C122.666 12.9912 123.724 12.5609 125.202 12.5609C126.679 12.5609 127.737 12.9912 128.375 13.8517C129.013 14.7123 129.332 15.953 129.332 17.5737V21.7045C129.332 23.3252 129.013 24.5659 128.375 25.4264ZM124.685 24.3722C124.836 24.4296 125.008 24.4583 125.202 24.4583C125.395 24.4583 125.564 24.4296 125.707 24.3722C125.858 24.3149 125.98 24.2467 126.073 24.1679C126.173 24.0818 126.256 23.9599 126.32 23.8021C126.385 23.6372 126.435 23.4937 126.471 23.3718C126.507 23.2499 126.532 23.0742 126.546 22.8447C126.561 22.6152 126.568 22.436 126.568 22.3069C126.575 22.1706 126.579 21.9698 126.579 21.7045V17.5737C126.579 17.3084 126.575 17.1112 126.568 16.9821C126.568 16.8458 126.561 16.6629 126.546 16.4335C126.532 16.204 126.507 16.0283 126.471 15.9064C126.435 15.7844 126.385 15.6446 126.32 15.4868C126.256 15.3219 126.173 15.2 126.073 15.1211C125.98 15.035 125.858 14.9633 125.707 14.9059C125.564 14.8486 125.395 14.8199 125.202 14.8199C125.008 14.8199 124.836 14.8486 124.685 14.9059C124.542 14.9633 124.42 15.035 124.32 15.1211C124.226 15.2 124.147 15.3219 124.083 15.4868C124.018 15.6446 123.968 15.7844 123.932 15.9064C123.896 16.0283 123.871 16.204 123.857 16.4335C123.843 16.6629 123.832 16.8458 123.825 16.9821C123.825 17.1112 123.825 17.3084 123.825 17.5737V21.7045C123.825 21.9698 123.825 22.1706 123.825 22.3069C123.832 22.436 123.843 22.6152 123.857 22.8447C123.871 23.0742 123.896 23.2499 123.932 23.3718C123.968 23.4937 124.018 23.6372 124.083 23.8021C124.147 23.9599 124.226 24.0818 124.32 24.1679C124.42 24.2467 124.542 24.3149 124.685 24.3722Z" fill="#101839"/>
<path d="M131.591 26.5237V12.7545H134.345V14.239C134.754 13.8661 135.087 13.5828 135.346 13.3892C135.604 13.1884 135.959 13.0019 136.411 12.8298C136.87 12.6505 137.357 12.5609 137.874 12.5609C138.462 12.5609 138.938 12.776 139.304 13.2063C139.67 13.6366 139.853 14.1637 139.853 14.7876V26.5237H137.099V16.1968C137.099 15.7163 137.031 15.3685 136.895 15.1534C136.758 14.931 136.482 14.8199 136.066 14.8199C135.83 14.8199 135.593 14.8701 135.356 14.9705C135.127 15.0637 134.955 15.1534 134.84 15.2394C134.725 15.3183 134.56 15.4474 134.345 15.6267V26.5237H131.591Z" fill="#101839"/>
<path d="M146.157 26.7173C145.49 26.7173 144.909 26.6026 144.414 26.3731C143.926 26.1436 143.535 25.846 143.241 25.4802C142.954 25.1073 142.721 24.634 142.542 24.0603C142.363 23.4794 142.237 22.9021 142.166 22.3284C142.101 21.7475 142.062 21.0734 142.047 20.306C142.026 19.7036 142.026 19.1012 142.047 18.4988C142.069 17.7817 142.115 17.147 142.187 16.5948C142.266 16.0354 142.399 15.494 142.585 14.9705C142.772 14.447 143.012 14.0167 143.306 13.6796C143.607 13.3426 143.998 13.0736 144.478 12.8728C144.966 12.6649 145.533 12.5609 146.178 12.5609C146.766 12.5609 147.282 12.6398 147.727 12.7975C148.179 12.9481 148.552 13.1812 148.846 13.4968C149.147 13.8051 149.394 14.1494 149.588 14.5294C149.789 14.9095 149.939 15.3721 150.04 15.9171C150.14 16.455 150.208 16.9857 150.244 17.5092C150.287 18.0327 150.309 18.6351 150.309 19.3164V19.6391H144.801V20.3276C144.801 20.4208 144.801 20.5678 144.801 20.7686C144.787 21.0339 144.783 21.31 144.79 21.5969C144.805 21.8766 144.819 22.1527 144.833 22.4252C144.848 22.6977 144.887 22.9595 144.952 23.2105C145.016 23.4543 145.095 23.6694 145.188 23.8559C145.282 24.0424 145.411 24.1894 145.576 24.2969C145.748 24.4045 145.949 24.4583 146.178 24.4583C146.465 24.4583 146.702 24.4045 146.888 24.2969C147.074 24.1822 147.211 24.0137 147.297 23.7914C147.39 23.569 147.455 23.3467 147.49 23.1244C147.526 22.9021 147.548 22.6224 147.555 22.2854V21.7045H150.287V22.2531C150.223 23.7232 149.861 24.8348 149.201 25.5878C148.541 26.3408 147.526 26.7173 146.157 26.7173ZM144.801 18.2622H147.533V17.4339C147.526 17.0681 147.505 16.749 147.469 16.4765C147.433 16.204 147.369 15.9315 147.275 15.6589C147.189 15.3864 147.053 15.1785 146.867 15.035C146.68 14.8916 146.451 14.8199 146.178 14.8199C145.898 14.8199 145.662 14.8952 145.468 15.0458C145.282 15.1964 145.142 15.4151 145.049 15.702C144.962 15.9817 144.902 16.2578 144.866 16.5303C144.83 16.8028 144.808 17.1291 144.801 17.5092V18.2622Z" fill="#101839"/>
</svg>
