<svg width="132" height="31" viewBox="0 0 132 31" fill="none" xmlns="http://www.w3.org/2000/svg">
<path d="M25.3098 11.9722L25.292 11.9545C25.2906 11.9536 25.2895 11.9522 25.2888 11.9507L14.2207 0.882324L3.15268 11.9504C3.15141 11.9517 3.15069 11.9534 3.14941 11.9543L3.13114 11.9719C1.4387 13.6739 0.3637 15.8927 0.0770472 18.2758C-0.209606 20.6589 0.308536 23.0694 1.5491 25.1242C2.78967 27.179 4.68146 28.7602 6.92376 29.6162C9.16605 30.4723 11.6302 30.5543 13.9244 29.849C14.1174 29.79 14.3238 29.79 14.5168 29.849C16.8109 30.554 19.2748 30.472 21.517 29.6158C23.7592 28.7596 25.6508 27.1786 26.8912 25.1239C28.1317 23.0693 28.6499 20.6589 28.3634 18.276C28.0768 15.893 27.002 13.6742 25.3098 11.9722ZM7.08831 19.2709C7.03443 19.3248 6.9917 19.3888 6.96256 19.4591C6.93341 19.5294 6.9184 19.6049 6.91842 19.6811C6.93811 21.6345 7.49018 23.5456 8.51521 25.2087C8.53849 25.2464 8.54925 25.2905 8.54595 25.3347C8.54265 25.3789 8.52546 25.4209 8.49682 25.4548C8.46819 25.4886 8.42959 25.5125 8.38655 25.5231C8.3435 25.5336 8.29821 25.5304 8.25717 25.5136C7.48658 25.1895 6.78654 24.7183 6.19619 24.1265C4.98638 22.9165 4.30624 21.2757 4.30514 19.5646C4.30404 17.8535 4.98208 16.2119 6.19035 15.0004L14.2207 6.97078L22.2506 15.0004C23.459 16.2117 24.1373 17.8534 24.1362 19.5646C24.1352 21.2757 23.4549 22.9165 22.245 24.1265C21.6546 24.7183 20.9546 25.1895 20.1842 25.5136C20.143 25.5304 20.0977 25.5336 20.0547 25.5231C20.0117 25.5125 19.9731 25.4885 19.9444 25.4548C19.9158 25.4209 19.8985 25.3789 19.8952 25.3346C19.8919 25.2904 19.9027 25.2462 19.926 25.2085C20.9512 23.5456 21.5036 21.6345 21.5236 19.6811C21.5236 19.6049 21.5084 19.5294 21.4791 19.459C21.4498 19.3885 21.407 19.3247 21.3529 19.2708L17.5547 15.2421C17.5169 15.2105 17.4693 15.1932 17.42 15.1932C17.3708 15.1932 17.3231 15.2105 17.2854 15.2421C17.2475 15.2735 17.222 15.3174 17.2132 15.3658C17.2043 15.4143 17.2128 15.4641 17.2371 15.507C18.7122 18.1765 17.4437 22.0108 15.3283 24.1265L15.3172 24.1377C15.0252 24.4265 14.631 24.5884 14.2204 24.5883C13.8097 24.5881 13.4156 24.4259 13.1238 24.137L13.1136 24.1265C10.9974 22.0108 9.72957 18.1769 11.205 15.5076C11.2292 15.4647 11.2377 15.4148 11.2288 15.3664C11.22 15.3179 11.1945 15.2741 11.1567 15.2426C11.1189 15.211 11.0712 15.1938 11.022 15.1938C10.9728 15.1938 10.9251 15.211 10.8873 15.2426L7.08831 19.2709Z" fill="#101839"/>
<path d="M52.5391 10.1261H56.2022L52.4026 22.8219H48.2161L46.4414 15.3136L44.644 22.8219H40.4576L36.658 10.1261H40.5486L42.5281 19.045L44.4848 10.1261H48.6029L50.5596 19.045L52.5391 10.1261Z" fill="#101839"/>
<path d="M65.7174 18.7947C66.2787 18.2487 66.5593 17.4751 66.5593 16.474C66.5593 15.4729 66.2787 14.7069 65.7174 14.176C65.1562 13.6299 64.5116 13.3569 63.7835 13.3569C63.0554 13.3569 62.4108 13.6299 61.8496 14.176C61.2883 14.7221 61.0077 15.4956 61.0077 16.4967C61.0077 17.4978 61.2883 18.2714 61.8496 18.8175C62.4108 19.3484 63.0554 19.6138 63.7835 19.6138C64.5116 19.6138 65.1562 19.3408 65.7174 18.7947ZM58.7325 21.161C57.61 19.9475 57.0488 18.3928 57.0488 16.4967C57.0488 14.6007 57.61 13.046 58.7325 11.8325C59.8549 10.6039 61.2201 9.98957 62.8279 9.98957C64.4509 9.98957 65.6947 10.5887 66.5593 11.787V10.1261H70.4499V22.8219H66.5593V20.9789C65.6189 22.3137 64.3599 22.9811 62.7824 22.9811C61.2049 22.9811 59.8549 22.3744 58.7325 21.161Z" fill="#101839"/>
<path d="M72.2529 10.1261H76.3938L79.2833 19.5683L82.1729 10.1261H86.3138L81.8088 22.8219H76.7578L72.2529 10.1261Z" fill="#101839"/>
<path d="M93.503 22.9811C91.6525 22.9811 90.1356 22.3896 88.9525 21.2065C87.7694 20.0082 87.1778 18.4231 87.1778 16.4512C87.1778 14.4794 87.7618 12.9095 88.9298 11.7415C90.1129 10.5735 91.6373 9.98957 93.503 9.98957C95.3687 9.98957 96.9158 10.566 98.1445 11.7187C99.3731 12.8715 99.9874 14.4718 99.9874 16.5195C99.9874 16.9594 99.9571 17.3689 99.8964 17.7481H91.1595C91.2353 18.3093 91.4856 18.772 91.9103 19.136C92.335 19.4849 92.7901 19.6593 93.2755 19.6593C93.776 19.6593 94.1476 19.6138 94.3903 19.5228C94.633 19.4166 94.8075 19.318 94.9136 19.227C95.035 19.1208 95.1867 18.954 95.3687 18.7265H99.5778C99.2138 20.0006 98.4857 21.032 97.3936 21.8208C96.3015 22.5943 95.0046 22.9811 93.503 22.9811ZM95.9375 15.3136C95.8768 14.7221 95.6189 14.2443 95.1639 13.8802C94.7089 13.501 94.1704 13.3114 93.5485 13.3114C92.9266 13.3114 92.4033 13.501 91.9786 13.8802C91.5539 14.2443 91.2884 14.7221 91.1822 15.3136H95.9375Z" fill="#101839"/>
<path d="M106.377 10.1261V12.4923C107.287 10.8238 108.501 9.98957 110.017 9.98957V13.9485H109.062C108.167 13.9485 107.492 14.1608 107.037 14.5855C106.597 15.0102 106.377 15.7535 106.377 16.8153V22.8219H102.486V10.1261H106.377Z" fill="#101839"/>
<path d="M115.679 8.69269C115.239 9.13257 114.7 9.35251 114.063 9.35251C113.426 9.35251 112.888 9.13257 112.448 8.69269C112.008 8.25281 111.788 7.71434 111.788 7.07728C111.788 6.42505 112.008 5.87899 112.448 5.43911C112.888 4.99924 113.426 4.7793 114.063 4.7793C114.7 4.7793 115.239 4.99924 115.679 5.43911C116.119 5.87899 116.339 6.42505 116.339 7.07728C116.339 7.71434 116.119 8.25281 115.679 8.69269ZM112.129 22.8219V10.1261H116.02V22.8219H112.129Z" fill="#101839"/>
<path d="M127.062 18.8402C127.577 18.2942 127.835 17.5054 127.835 16.474C127.835 15.4425 127.57 14.6614 127.039 14.1305C126.508 13.5844 125.878 13.3114 125.15 13.3114C124.422 13.3114 123.793 13.5844 123.262 14.1305C122.746 14.6614 122.488 15.4425 122.488 16.474C122.488 17.5054 122.754 18.2942 123.285 18.8402C123.831 19.3863 124.468 19.6593 125.196 19.6593C125.924 19.6593 126.546 19.3863 127.062 18.8402ZM120.441 21.1837C119.167 19.9854 118.529 18.4079 118.529 16.4512C118.529 14.4945 119.167 12.9322 120.441 11.7643C121.715 10.5811 123.292 9.98957 125.173 9.98957C127.054 9.98957 128.624 10.5811 129.883 11.7643C131.157 12.9322 131.794 14.4945 131.794 16.4512C131.794 18.4079 131.165 19.9854 129.906 21.1837C128.647 22.382 127.077 22.9811 125.196 22.9811C123.315 22.9811 121.73 22.382 120.441 21.1837Z" fill="#101839"/>
</svg>
