<svg width="145" height="29" viewBox="0 0 145 29" fill="none" xmlns="http://www.w3.org/2000/svg">
<path d="M6.30598 9.96879L9.85211 7.92367L7.87272 4.49713H26.4883L17.1835 20.6191L15.2041 17.1866L11.6581 19.2377L17.1835 28.8057L33.5805 0.400879H0.780518L6.30598 9.96879Z" fill="#101839"/>
<path d="M48.2921 23.6008L55.3721 6.80078H51.9881L46.9961 18.9928L41.9801 6.80078H38.5961L45.6761 23.6008H48.2921Z" fill="#101839"/>
<path d="M59.3752 6.80078V23.6008H71.8792V20.6248H62.5912V16.5928H70.4392V13.6168H62.5912V9.77678H71.7592V6.80078H59.3752Z" fill="#101839"/>
<path d="M76.4939 6.80078V23.6008H79.7099V17.6728H83.6219L87.1499 23.6008H90.7259L86.8859 17.1208C88.8299 16.2568 90.0779 14.4088 90.0779 12.2248C90.0779 10.6888 89.5259 9.39278 88.3979 8.36078C87.2939 7.32878 85.9259 6.80078 84.2699 6.80078H76.4939ZM84.2699 9.77678C85.6859 9.77678 86.7179 10.8088 86.7179 12.2248C86.7179 13.6408 85.6859 14.6968 84.2699 14.6968H79.7099V9.77678H84.2699Z" fill="#101839"/>
<path d="M99.3256 9.77678V23.6008H102.566V9.77678H108.134V6.80078H93.7576V9.77678H99.3256Z" fill="#101839"/>
<path d="M112.513 6.80078V23.6008H125.017V20.6248H115.729V16.5928H123.577V13.6168H115.729V9.77678H124.897V6.80078H112.513Z" fill="#101839"/>
<path d="M134.695 15.0328L128.455 23.6008H132.319L136.615 17.6728L140.911 23.6008H144.751L138.535 15.0328L144.511 6.80078H140.671L136.615 12.3928L132.559 6.80078H128.695L134.695 15.0328Z" fill="#101839"/>
</svg>
