<svg width="131" height="26" viewBox="0 0 131 26" fill="none" xmlns="http://www.w3.org/2000/svg">
<path d="M26.0233 20.6506C25.8173 20.324 25.548 20.0414 25.2311 19.8196C24.9143 19.5978 24.5562 19.4412 24.1779 19.3588C22.7304 19.0234 21.475 18.1308 20.686 16.876C19.8971 15.6213 19.6388 14.1064 19.9674 12.6624C20.0938 12.1044 20.0518 11.5215 19.8468 10.9871C19.6417 10.4527 19.2828 9.99053 18.815 9.65872C18.3472 9.32692 17.7914 9.14023 17.2174 9.12206C16.6435 9.10393 16.0769 9.25514 15.589 9.55672C15.101 9.85835 14.7134 10.2968 14.4747 10.8172C14.2361 11.3376 14.1571 11.9166 14.2477 12.4816C14.3382 13.0466 14.5944 13.5723 14.9839 13.9927C15.3733 14.4131 15.8788 14.7095 16.4368 14.8446C17.1587 15.0068 17.8413 15.3094 18.4456 15.735C19.0499 16.1605 19.5639 16.7008 19.9582 17.3246C20.3525 17.9485 20.6194 18.6438 20.7435 19.3707C20.8676 20.0975 20.8464 20.8416 20.6813 21.5603C20.5836 22.0236 20.601 22.5037 20.7321 22.9587C20.8633 23.4138 21.1041 23.8299 21.4337 24.171C21.7633 24.5121 22.1715 24.7677 22.623 24.9155C23.0744 25.0633 23.5553 25.0989 24.0237 25.0191C24.4921 24.9394 24.9338 24.7467 25.3103 24.4579C25.6869 24.1691 25.9867 23.7929 26.1839 23.3622C26.3811 22.9314 26.4695 22.4592 26.4416 21.9866C26.4136 21.5139 26.27 21.0553 26.0233 20.6506Z" fill="#101839"/>
<path d="M8.10741 17.4279C8.61716 17.7051 9.19834 17.8242 9.77646 17.7699C10.3546 17.7157 10.9033 17.4905 11.3521 17.1235C11.8009 16.7564 12.1294 16.264 12.2954 15.7097C12.4615 15.1553 12.4574 14.5641 12.2839 14.012C12.0639 13.308 11.9855 12.5677 12.0533 11.8335C12.121 11.0993 12.3335 10.3856 12.6787 9.7334C13.0239 9.08119 13.4948 8.50326 14.0646 8.03273C14.6344 7.56219 15.2917 7.20838 15.999 6.99148C16.5476 6.82029 17.033 6.49126 17.3943 6.04583C17.7556 5.60039 17.9766 5.05844 18.0295 4.48815C18.0824 3.91785 17.9647 3.34472 17.6914 2.84091C17.4181 2.33707 17.0013 1.92502 16.4936 1.65663C15.9857 1.38825 15.4096 1.27548 14.8377 1.33258C14.2657 1.38964 13.7234 1.61397 13.2791 1.97739C12.8348 2.34076 12.5084 2.82697 12.3408 3.3748C12.1732 3.92262 12.172 4.50759 12.3373 5.05609C12.7713 6.47213 12.6245 8.00183 11.9292 9.31033C11.2338 10.6188 10.0465 11.5996 8.62704 12.0379C8.06669 12.1998 7.56801 12.5256 7.19557 12.973C6.82314 13.4205 6.59408 13.969 6.53809 14.5476C6.48214 15.1262 6.60179 15.7082 6.88159 16.2183C7.16139 16.7284 7.58842 17.143 8.10741 17.4086V17.4279Z" fill="#101839"/>
<path d="M15.6058 16.9533C15.2184 16.9669 14.8376 17.0573 14.4857 17.2193C14.1338 17.3813 13.8178 17.6116 13.5564 17.8968C12.5421 18.9777 11.1394 19.6145 9.65518 19.6681C8.1709 19.7216 6.72573 19.1874 5.63566 18.1823C5.354 17.919 5.02264 17.7141 4.6608 17.5795C4.299 17.445 3.91393 17.3834 3.52801 17.3985C3.05298 17.4208 2.59063 17.5586 2.18136 17.7999C1.77207 18.0412 1.42832 18.3786 1.18007 18.7827C0.931779 19.1869 0.78658 19.6454 0.757069 20.1182C0.727594 20.5912 0.814699 21.064 1.01085 21.4957C1.20701 21.9273 1.50619 22.3045 1.88233 22.5945C2.25848 22.8844 2.7001 23.0781 3.16871 23.1589C3.63731 23.2396 4.11865 23.2049 4.57067 23.0577C5.02271 22.9104 5.43169 22.6552 5.76191 22.3143C6.26427 21.7724 6.86897 21.3346 7.5414 21.0259C8.21387 20.7173 8.94082 20.5438 9.68066 20.5155C10.4205 20.4872 11.1587 20.6045 11.8529 20.8609C12.5472 21.1173 13.1838 21.5076 13.7264 22.0095C14.0796 22.3275 14.5057 22.5544 14.9673 22.6704C15.4289 22.7864 15.912 22.7879 16.3744 22.6748C16.8368 22.5618 17.2642 22.3376 17.6195 22.0219C17.9748 21.7061 18.247 21.3084 18.4123 20.8636C18.5776 20.4188 18.6311 19.9405 18.5679 19.4703C18.5048 19.0002 18.327 18.5527 18.05 18.1669C17.7731 17.7811 17.4056 17.4687 16.9795 17.2572C16.5533 17.0456 16.0817 16.9413 15.6058 16.9533Z" fill="#101839"/>
<path d="M46.2287 20.8384C47.7934 20.8384 48.7686 20.2725 49.1544 19.1408C49.283 18.7137 49.3794 18.1692 49.4437 17.5072L48.6078 17.4751C48.4792 18.9486 48.1042 19.696 47.4826 19.7173C47.011 19.6746 46.7753 19.1408 46.7753 18.1158V11.4212C46.7753 8.75197 45.5321 7.1077 43.0459 6.48843C42.4029 6.33895 41.7063 6.26421 40.9561 6.26421C38.0411 6.26421 36.2086 6.89416 35.4584 8.15405C35.2655 8.47437 35.1691 8.81603 35.1691 9.17905C35.1691 10.0119 35.5656 10.535 36.3586 10.7486C36.5515 10.8126 36.7551 10.8447 36.9695 10.8447C37.8911 10.8447 38.5127 10.3962 38.8342 9.49937C38.8771 9.37124 38.9414 9.1577 39.0271 8.85874C39.2629 8.00457 39.5629 7.47072 39.9273 7.25718C40.1631 7.15041 40.431 7.09702 40.731 7.09702C41.7384 7.09702 42.3493 7.70562 42.5636 8.9228C42.6493 9.37124 42.6922 9.90509 42.6922 10.5244V12.6064C37.1838 12.7132 34.4189 14.1653 34.3975 16.9626C34.3975 18.8632 35.2334 20.0804 36.9052 20.6142C37.3981 20.7637 37.9447 20.8384 38.5448 20.8384C40.3667 20.8384 41.7063 20.1551 42.5636 18.7884C42.7351 18.5108 42.8744 18.2225 42.9816 17.9236C43.4317 19.76 44.514 20.7317 46.2287 20.8384ZM40.2166 19.4611C39.145 19.4184 38.5984 18.4681 38.577 16.6103C38.577 15.2009 39.1557 14.2827 40.3131 13.8556C40.9347 13.6634 41.7277 13.546 42.6922 13.5033V16.6103C42.285 18.1051 41.6312 19.0233 40.731 19.365C40.5381 19.4291 40.3667 19.4611 40.2166 19.4611Z" fill="#101839"/>
<path d="M58.5744 19.6853H56.1953V12.7666C56.3453 10.5244 56.8919 9.1577 57.8349 8.66655C57.985 8.60249 58.1243 8.57046 58.2529 8.57046C58.4887 8.57046 58.7459 8.81603 59.0245 9.30718C59.4103 9.99051 59.8282 10.4176 60.2784 10.5884C60.4927 10.6525 60.7285 10.6845 60.9857 10.6845C61.843 10.6845 62.4538 10.2788 62.8182 9.46733C62.9468 9.18973 63.0111 8.90145 63.0111 8.60249C63.0111 7.53478 62.486 6.86213 61.4358 6.58452C61.1786 6.52046 60.9106 6.48843 60.632 6.48843C59.3031 6.48843 58.135 7.0116 57.1276 8.05796C56.6775 8.57046 56.3346 9.12567 56.0988 9.72358L55.8738 6.74468H50.2475V7.57749H52.1122V18.0197C52.1122 18.9593 51.7371 19.4931 50.987 19.6212C50.7726 19.6639 50.5261 19.6853 50.2475 19.6853V20.5181H59.346C59.346 20.027 59.2067 19.76 58.928 19.7173C58.8209 19.696 58.703 19.6853 58.5744 19.6853Z" fill="#101839"/>
<path d="M68.5409 13.5673C68.5409 10.5778 68.9053 8.66655 69.6341 7.83374C70.0842 7.34259 70.7164 7.09702 71.5309 7.09702C72.9027 7.09702 73.7814 7.79103 74.1672 9.17905C74.4244 10.0759 74.553 11.496 74.553 13.4392C74.553 16.5569 74.1458 18.5215 73.3313 19.333C72.8598 19.7814 72.2489 20.0056 71.4988 20.0056C70.1699 20.0056 69.3125 19.3223 68.9267 17.9556C68.6695 17.0374 68.5409 15.5746 68.5409 13.5673ZM71.6917 6.26421C69.0553 6.26421 67.0299 7.16108 65.6153 8.95483C64.6293 10.2361 64.1364 11.7309 64.1364 13.4392C64.1364 15.8522 64.9723 17.7634 66.6441 19.1728C67.973 20.2832 69.559 20.8384 71.4023 20.8384C73.9315 20.8384 75.9141 19.9309 77.3501 18.1158C78.4218 16.7491 78.9576 15.1689 78.9576 13.3751C78.9576 10.9835 78.111 9.11499 76.4177 7.76968C75.1103 6.76603 73.5349 6.26421 71.6917 6.26421Z" fill="#101839"/>
<path d="M87.0916 19.6853H86.5129L86.545 11.4212C86.6736 9.73426 87.2309 8.63452 88.2169 8.12202C88.4955 7.97254 88.7741 7.8978 89.0528 7.8978C89.8458 7.8978 90.4138 8.38895 90.7567 9.37124C90.9067 9.84103 90.9818 10.3642 90.9818 10.9408V18.0197C90.9818 18.8952 90.7781 19.4184 90.3709 19.5892C90.178 19.6533 89.9101 19.6853 89.5672 19.6853V20.5181H96.383C96.383 20.027 96.2437 19.76 95.965 19.7173C95.8364 19.696 95.7078 19.6853 95.5792 19.6853H95.0327V11.4853V11.2611C95.1827 9.48869 95.7614 8.38895 96.7688 7.96187C96.9831 7.87645 97.1975 7.83374 97.4118 7.83374C98.3334 7.83374 98.9657 8.37827 99.3087 9.46733C99.4373 9.91577 99.5016 10.4069 99.5016 10.9408V18.0197C99.5016 18.8952 99.2979 19.4184 98.8907 19.5892C98.6978 19.6533 98.4299 19.6853 98.087 19.6853V20.5181H105.417C105.417 20.027 105.278 19.76 104.999 19.7173C104.871 19.696 104.742 19.6853 104.613 19.6853H103.552V11.3251C103.552 9.23244 102.856 7.74832 101.463 6.8728C100.82 6.46707 100.123 6.26421 99.373 6.26421C97.2939 6.28556 95.74 7.27853 94.7112 9.24312C94.1968 7.72697 93.2859 6.77671 91.9784 6.39233C91.6355 6.30692 91.2926 6.26421 90.9496 6.26421C88.892 6.28556 87.3917 7.22515 86.4486 9.08296L86.2878 6.74468H80.5651V7.57749H82.4298V18.0197C82.4298 19.002 81.969 19.5465 81.0474 19.6533C80.8973 19.6746 80.7366 19.6853 80.5651 19.6853V20.5181H87.8632C87.8632 20.027 87.7239 19.76 87.4452 19.7173C87.3381 19.696 87.2202 19.6853 87.0916 19.6853Z" fill="#101839"/>
<path d="M113.841 19.6853H112.651V6.74468H106.703V7.57749H108.568V18.0197C108.568 18.9593 108.193 19.4931 107.443 19.6212C107.228 19.6639 106.982 19.6853 106.703 19.6853V20.5181H114.612C114.612 20.027 114.473 19.76 114.194 19.7173C114.087 19.696 113.969 19.6853 113.841 19.6853ZM112.94 2.54858C112.94 1.609 112.522 0.91499 111.686 0.466553C111.322 0.253011 110.936 0.14624 110.529 0.14624C109.607 0.14624 108.911 0.562646 108.439 1.39546C108.246 1.75848 108.15 2.14285 108.15 2.54858C108.15 3.48817 108.568 4.1715 109.404 4.59858C109.768 4.79077 110.143 4.88687 110.529 4.88687C111.472 4.88687 112.169 4.49181 112.619 3.70171C112.833 3.33869 112.94 2.95431 112.94 2.54858Z" fill="#101839"/>
<path d="M115.416 20.5181H120.271V19.6853H118.02L121.878 14.8806L125.093 19.6853H123.325V20.5181H130.752C130.752 20.027 130.58 19.76 130.237 19.7173C130.151 19.696 130.055 19.6853 129.948 19.6853H129.305L124.611 12.6384L127.794 8.5064C128.222 7.92983 128.769 7.60952 129.433 7.54546C129.755 7.50275 129.948 7.37463 130.012 7.16108C130.034 7.03296 130.044 6.89416 130.044 6.74468H125.286V7.57749H127.376L124.064 11.8376L121.235 7.57749H123.003V6.74468H115.544V7.57749H117.023L121.396 14.1119L117.602 18.7564C117.152 19.2903 116.605 19.6106 115.962 19.7173C115.662 19.7387 115.491 19.8668 115.448 20.1017C115.427 20.2298 115.416 20.3686 115.416 20.5181Z" fill="#101839"/>
</svg>
