<svg width="141" height="25" viewBox="0 0 141 25" fill="none" xmlns="http://www.w3.org/2000/svg">
<path d="M136.439 19.9983C135.988 19.4947 135.605 18.9328 135.3 18.3274C134.82 17.3785 134.155 16.5361 133.347 15.8499C132.538 15.1637 131.601 14.6474 130.591 14.3316C129.707 14.0565 128.783 13.9398 127.86 13.9866C128.532 13.948 129.194 14.1665 129.712 14.5985C130.231 15.0305 130.569 15.644 130.657 16.3161C130.9 17.7682 131.539 19.1238 132.503 20.2312C133.467 21.3387 134.717 22.1545 136.114 22.5876C137.712 23.0822 139.424 23.0556 141.006 22.5114C139.244 22.2219 137.633 21.3354 136.439 19.9983Z" fill="#101839"/>
<path d="M125.11 13.8433C125.315 14.7399 125.677 15.594 126.178 16.3672C125.812 15.8057 125.671 15.1285 125.783 14.469C125.895 13.8095 126.252 13.2156 126.784 12.8046C127.913 11.8778 128.76 10.6581 129.232 9.28151C129.704 7.90487 129.781 6.42529 129.456 5.00755C129.084 3.38569 128.203 1.92299 126.94 0.830566C127.569 2.49964 127.605 4.33189 127.042 6.02417C126.827 6.66305 126.527 7.2709 126.152 7.83198C125.575 8.71339 125.182 9.70071 124.996 10.7355C124.81 11.7703 124.835 12.8315 125.07 13.8566L125.11 13.8433Z" fill="#101839"/>
<path d="M129.047 16.9648C128.748 17.568 128.236 18.0343 127.613 18.2699C126.99 18.5057 126.303 18.4934 125.688 18.2358C124.335 17.7204 122.866 17.5975 121.448 17.881C120.029 18.1645 118.716 18.8432 117.656 19.8412C116.446 20.9842 115.625 22.488 115.311 24.1356C116.437 22.7477 117.995 21.7913 119.727 21.4243C120.378 21.2889 121.043 21.2365 121.707 21.2682C122.748 21.323 123.789 21.1653 124.77 20.8046C125.75 20.4439 126.649 19.8873 127.414 19.1678C128.083 18.5363 128.639 17.7907 129.055 16.9648H129.047Z" fill="#101839"/>
<path d="M0.308838 24.0302H4.08164V14.843C4.08164 13.8254 4.36004 13.0094 4.91684 12.395C5.47364 11.7806 6.20324 11.4734 7.10564 11.4734C8.02724 11.4734 8.75684 11.7806 9.29444 12.395C9.85124 12.9902 10.1296 13.8062 10.1296 14.843V24.0302H13.9024V14.843C13.9024 13.8254 14.1808 13.0094 14.7376 12.395C15.2944 11.7806 16.024 11.4734 16.9264 11.4734C17.848 11.4734 18.5776 11.7806 19.1152 12.395C19.672 12.9902 19.9504 13.8062 19.9504 14.843V24.0302H23.7232V13.9502C23.7232 12.779 23.464 11.7518 22.9456 10.8686C22.4464 9.96622 21.7648 9.26542 20.9008 8.76622C20.0368 8.26702 19.048 8.01742 17.9344 8.01742C16.8976 8.01742 15.9568 8.22862 15.112 8.65102C14.2864 9.07342 13.6048 9.70702 13.0672 10.5518C12.6064 9.78382 11.944 9.16942 11.08 8.70862C10.2352 8.24782 9.28484 8.01742 8.22884 8.01742C7.24964 8.01742 6.37604 8.20942 5.60804 8.59342C4.84004 8.97742 4.25444 9.55342 3.85124 10.3214V8.36302H0.308838V24.0302Z" fill="#101839"/>
<path d="M31.6671 24.3758C33.7023 24.3758 35.3343 23.7038 36.5631 22.3598V24.0302H40.1343V13.6046C40.1343 12.5102 39.8559 11.5406 39.2991 10.6958C38.7423 9.85102 37.9743 9.19822 36.9951 8.73742C36.0351 8.25742 34.9119 8.01742 33.6255 8.01742C32.0511 8.01742 30.6495 8.39182 29.4207 9.14062C28.1919 9.88942 27.3471 10.8782 26.8863 12.107L29.9679 13.6046C30.2559 12.8942 30.7071 12.3278 31.3215 11.9054C31.9359 11.4638 32.6559 11.243 33.4815 11.243C34.3455 11.243 35.0367 11.4734 35.5551 11.9342C36.0927 12.3758 36.3615 12.9326 36.3615 13.6046V14.123L31.6959 14.8718C29.8527 15.179 28.4895 15.7646 27.6063 16.6286C26.7231 17.4926 26.2815 18.5774 26.2815 19.883C26.2815 21.2654 26.7711 22.3598 27.7503 23.1662C28.7295 23.9726 30.0351 24.3758 31.6671 24.3758ZM30.1983 19.739C30.1983 18.6446 30.9375 17.9534 32.4159 17.6654L36.3615 17.003V17.6366C36.3615 18.7118 35.9871 19.6238 35.2383 20.3726C34.5087 21.1214 33.5487 21.4958 32.3583 21.4958C31.7247 21.4958 31.2063 21.3422 30.8031 21.035C30.3999 20.7086 30.1983 20.2766 30.1983 19.739Z" fill="#101839"/>
<path d="M43.6213 24.0302H47.3941V15.3038C47.3941 14.1134 47.7205 13.1918 48.3733 12.539C49.0453 11.867 49.9093 11.531 50.9653 11.531H52.3189V8.19022H51.3973C50.4373 8.19022 49.5925 8.36302 48.8629 8.70862C48.1333 9.05422 47.5669 9.67822 47.1637 10.5806V8.36302H43.6213V24.0302Z" fill="#101839"/>
<path d="M61.9575 24.203C62.5911 24.203 63.2151 24.155 63.8295 24.059V20.8046C63.4647 20.8622 63.1287 20.891 62.8215 20.891C61.8999 20.891 61.2279 20.6798 60.8055 20.2574C60.3831 19.835 60.1719 19.2302 60.1719 18.443V11.7326H63.7719V8.36302H60.1719V4.79182H56.3991V6.00142C56.3991 6.76942 56.1879 7.35502 55.7655 7.75822C55.3431 8.16142 54.7479 8.36302 53.9799 8.36302H53.6919V11.7326H56.3991V18.6446C56.3991 20.3918 56.8791 21.755 57.8391 22.7342C58.8183 23.7134 60.1911 24.203 61.9575 24.203Z" fill="#101839"/>
<path d="M66.712 6.60622H70.4848V2.57422H66.712V6.60622ZM66.712 24.0302H70.4848V8.36302H66.712V24.0302Z" fill="#101839"/>
<path d="M73.9682 24.0302H77.741V14.843C77.741 13.8254 78.029 13.0094 78.605 12.395C79.2002 11.7806 79.9682 11.4734 80.909 11.4734C81.8498 11.4734 82.6082 11.7806 83.1842 12.395C83.7794 12.9902 84.077 13.8062 84.077 14.843V24.0302H87.8498V13.9502C87.8498 12.779 87.6002 11.7518 87.101 10.8686C86.6018 9.96622 85.901 9.26542 84.9986 8.76622C84.1154 8.26702 83.0978 8.01742 81.9458 8.01742C80.9666 8.01742 80.0834 8.20942 79.2962 8.59342C78.5282 8.97742 77.933 9.54382 77.5106 10.2926V8.36302H73.9682V24.0302Z" fill="#101839"/>
<path d="M98.7009 24.3758C100.218 24.3758 101.6 24.0302 102.848 23.339C104.096 22.6286 105.094 21.659 105.843 20.4302C106.592 19.1822 106.966 17.771 106.966 16.1966C106.966 14.6222 106.592 13.2206 105.843 11.9918C105.114 10.763 104.125 9.79342 102.877 9.08302C101.629 8.37262 100.237 8.01742 98.7009 8.01742C97.1457 8.01742 95.7441 8.37262 94.4961 9.08302C93.2481 9.79342 92.2497 10.763 91.5009 11.9918C90.7713 13.2206 90.4065 14.6222 90.4065 16.1966C90.4065 17.771 90.7713 19.1726 91.5009 20.4014C92.2497 21.6302 93.2481 22.5998 94.4961 23.3102C95.7633 24.0206 97.1649 24.3758 98.7009 24.3758ZM98.7009 20.9198C97.8561 20.9198 97.0977 20.7182 96.4257 20.315C95.7729 19.9118 95.2545 19.355 94.8705 18.6446C94.5057 17.915 94.3233 17.099 94.3233 16.1966C94.3233 15.2942 94.5057 14.4878 94.8705 13.7774C95.2545 13.067 95.7729 12.5102 96.4257 12.107C97.0977 11.6846 97.8561 11.4734 98.7009 11.4734C99.5457 11.4734 100.285 11.6846 100.918 12.107C101.571 12.5102 102.08 13.067 102.445 13.7774C102.829 14.4878 103.021 15.2942 103.021 16.1966C103.021 17.099 102.829 17.915 102.445 18.6446C102.08 19.355 101.571 19.9118 100.918 20.315C100.285 20.7182 99.5457 20.9198 98.7009 20.9198Z" fill="#101839"/>
</svg>
