<svg width="485" height="571" viewBox="0 0 485 571" fill="none" xmlns="http://www.w3.org/2000/svg">
<path d="M23.0365 18.5625H293.886V206.1H23.0365V18.5625Z" fill="#DFE9FF" stroke="#101839" stroke-width="2" stroke-miterlimit="22.93"/>
<path fill-rule="evenodd" clip-rule="evenodd" d="M163.7 45.4123C168.219 56.7673 184.636 77.4618 201.971 99.3249C218.465 120.142 223.943 127.499 222.316 126.936C217.088 125.143 139.566 42.6871 115.352 56.2043C103.817 62.6435 102.104 76.8799 116.544 102.755C117.145 103.834 118.437 105.759 120.391 108.655L132.668 126.903C128.737 124.538 125.098 122.172 121.711 119.986C112.773 114.214 105.298 109.384 97.1081 106.739L87.2104 137.572C91.1657 138.85 97.1034 142.687 104.205 147.276C117.268 155.717 133.605 166.272 156.518 173.402C169.435 177.419 177.071 172.848 180.534 161.725C183.449 152.362 173.47 132.491 163.171 115.321C174.999 126.97 186.354 138.202 189.718 141.39C190.707 142.398 191.778 143.323 192.921 144.153L193.11 144.215C240.825 175.593 263.847 178.999 272.24 166.239C283.174 149.557 254.257 113.074 227.345 79.1508C211.462 59.1235 196.431 40.1701 193.753 33.4849L163.7 45.4123Z" fill="#5159A7"/>
<path d="M23.0365 1H293.886V18.5624H23.0365V1Z" fill="white" stroke="#101839" stroke-width="2" stroke-miterlimit="22.93"/>
<path fill-rule="evenodd" clip-rule="evenodd" d="M282.228 6.14746C281.435 6.14746 280.659 6.38277 279.999 6.82362C279.339 7.26448 278.825 7.89109 278.522 8.6242C278.218 9.35732 278.138 10.164 278.293 10.9423C278.448 11.7206 278.83 12.4354 279.391 12.9966C279.952 13.5577 280.667 13.9398 281.446 14.0946C282.224 14.2494 283.031 14.1699 283.764 13.8663C284.497 13.5626 285.123 13.0484 285.564 12.3886C286.005 11.7288 286.24 10.9531 286.24 10.1596C286.24 9.09549 285.818 8.07499 285.065 7.32258C284.313 6.57016 283.292 6.14746 282.228 6.14746V6.14746Z" stroke="#101839" stroke-width="2" stroke-miterlimit="22.93"/>
<path fill-rule="evenodd" clip-rule="evenodd" d="M268.65 6.14746C267.856 6.14746 267.08 6.38277 266.42 6.82362C265.761 7.26448 265.246 7.89109 264.943 8.6242C264.639 9.35732 264.56 10.164 264.715 10.9423C264.869 11.7206 265.251 12.4354 265.813 12.9966C266.374 13.5577 267.089 13.9398 267.867 14.0946C268.645 14.2494 269.452 14.1699 270.185 13.8663C270.918 13.5626 271.545 13.0484 271.985 12.3886C272.426 11.7288 272.662 10.9531 272.662 10.1596C272.662 9.09549 272.239 8.07499 271.486 7.32258C270.734 6.57016 269.714 6.14746 268.65 6.14746V6.14746Z" stroke="#101839" stroke-width="2" stroke-miterlimit="22.93"/>
<path fill-rule="evenodd" clip-rule="evenodd" d="M255.071 6.14746C254.277 6.14746 253.501 6.38277 252.842 6.82362C252.182 7.26448 251.668 7.89109 251.364 8.6242C251.06 9.35732 250.981 10.164 251.136 10.9423C251.29 11.7206 251.673 12.4354 252.234 12.9966C252.795 13.5577 253.51 13.9398 254.288 14.0946C255.066 14.2494 255.873 14.1699 256.606 13.8663C257.339 13.5626 257.966 13.0484 258.407 12.3886C258.847 11.7288 259.083 10.9531 259.083 10.1596C259.083 9.09549 258.66 8.07499 257.908 7.32258C257.155 6.57016 256.135 6.14746 255.071 6.14746V6.14746Z" stroke="#101839" stroke-width="2" stroke-miterlimit="22.93"/>
<path d="M191.587 303.516L140.508 567.184" stroke="#575757" stroke-width="2" stroke-miterlimit="22.93"/>
<path d="M169.118 417.378H325.656" stroke="#575757" stroke-width="2" stroke-miterlimit="22.93"/>
<path d="M152.166 567.184H130.526" stroke="#575757" stroke-width="2" stroke-miterlimit="22.93"/>
<path fill-rule="evenodd" clip-rule="evenodd" d="M191.861 167.521H93.1249C89.5528 167.521 87.2723 170.445 88.053 174.021L103.666 245.312H215.413L199.8 174.021C199.01 170.445 195.443 167.521 191.861 167.521Z" fill="#ADB8CD" stroke="#101839" stroke-width="2" stroke-miterlimit="22.93"/>
<path fill-rule="evenodd" clip-rule="evenodd" d="M261.656 298.037H158.042C155.814 298.037 152.081 296.216 149.744 293.987L103.131 249.514L103.694 245.303L214.879 249.514L261.491 293.987C263.776 296.216 263.885 298.037 261.656 298.037Z" fill="#B3B3B3" stroke="#101839" stroke-width="2" stroke-miterlimit="22.93"/>
<path fill-rule="evenodd" clip-rule="evenodd" d="M262.877 294.001H159.263C157.035 294.001 153.302 292.18 150.964 289.951L104.333 245.496H216.066L262.679 289.97C265.016 292.18 265.106 294.001 262.877 294.001Z" fill="#B3B3B3" stroke="#101839" stroke-width="2" stroke-miterlimit="22.93"/>
<path fill-rule="evenodd" clip-rule="evenodd" d="M297.075 232.287L253.117 231.511C250.723 234.567 230.407 251.732 230.407 251.732C240.115 271.561 279.191 286.498 300.235 287.534C368.81 290.917 327.506 223.785 297.075 232.287Z" fill="white" stroke="#101839" stroke-width="2" stroke-miterlimit="22.93"/>
<path fill-rule="evenodd" clip-rule="evenodd" d="M235.521 258.858L253.117 231.511C253.074 230.636 248.679 225.663 243.938 220.605C240.404 216.82 234.4 213.215 230.01 215.198C228.548 215.86 229.309 216.697 228.041 216.617C213.885 215.813 215.3 223.884 215.3 223.884C214.898 224.036 214.505 224.201 214.117 224.386C211.898 225.441 210.025 227.064 209.211 229.401C208.426 231.648 208.118 235.026 211.241 238.272C211.269 238.949 209.348 239.975 209.254 242.875C209.154 245.648 210.815 249.116 213.171 250.687C215.806 252.442 219.251 251.983 220.874 248.586C224.455 248.648 231.841 255.115 234.689 257.921L235.521 258.858Z" fill="#FDC7A4" stroke="#101839" stroke-width="2" stroke-miterlimit="22.93"/>
<path d="M210.715 239.19C211.699 235.784 219.615 231.805 224.838 234.766" stroke="#101839" stroke-width="2" stroke-miterlimit="22.93"/>
<path d="M213.384 224.712C215.898 223.495 218.663 222.884 221.457 222.927C224.25 222.971 226.994 223.668 229.47 224.963" stroke="#101839" stroke-width="2" stroke-miterlimit="22.93"/>
<path d="M226.787 216.58C230.355 216.939 234.66 218.212 235.521 218.983" stroke="#101839" stroke-width="2" stroke-miterlimit="22.93"/>
<path d="M222.056 248.809C221.342 248.624 219.118 247.91 217.798 248.108" stroke="#101839" stroke-width="2" stroke-miterlimit="22.93"/>
<path fill-rule="evenodd" clip-rule="evenodd" d="M358.08 478.78L385.445 524.2L360.554 537.987C360.516 537.945 355.544 530.71 350.481 535.385C348.186 537.509 349.634 540.916 351.12 543.315L314.874 563.403L274.289 561.341C275.112 537.519 301.787 533.237 301.787 533.237C312.324 521.168 322.43 510.645 317.183 501.429L358.08 478.78Z" fill="#101839" stroke="#101839" stroke-width="2" stroke-miterlimit="22.93"/>
<path fill-rule="evenodd" clip-rule="evenodd" d="M274.142 560.328L314.103 560.12L350.183 540.14L353.211 545.6L314.713 566.919L273.915 566.976L274.142 560.328Z" fill="#2C3455"/>
<path d="M384.419 521.226L387.445 526.689L360.65 541.529L357.624 536.066L384.419 521.226Z" fill="#2C3455"/>
<path d="M287.281 539.019C293.829 541.772 299.625 549.257 300.888 560.404" stroke="#101839" stroke-width="2" stroke-miterlimit="22.93"/>
<path fill-rule="evenodd" clip-rule="evenodd" d="M272.293 347.01C321.805 347.01 381.585 348.378 431.111 348.378C439.434 406.435 370.599 415.708 363.033 416.735L326.158 415.911L362.612 485.688L309.4 508.554L248.783 413.129C242.06 384.874 236.297 376.401 261.496 365.344L272.293 347.01Z" fill="#E0DE72" stroke="#101839" stroke-width="2" stroke-miterlimit="22.93"/>
<path d="M407.639 418.083L442.679 567.188" stroke="#575757" stroke-width="2" stroke-miterlimit="22.93"/>
<path d="M348.414 420.534L320.017 567.113" stroke="#575757" stroke-width="2" stroke-miterlimit="22.93"/>
<path d="M448.101 567.113H436.069" stroke="#575757" stroke-width="2" stroke-miterlimit="22.93"/>
<path d="M326.498 567.113H314.467" stroke="#575757" stroke-width="2" stroke-miterlimit="22.93"/>
<path d="M274.327 420.534L245.93 567.113" stroke="#575757" stroke-width="2" stroke-miterlimit="22.93"/>
<path d="M252.412 567.113H240.38" stroke="#575757" stroke-width="2" stroke-miterlimit="22.93"/>
<path fill-rule="evenodd" clip-rule="evenodd" d="M120.561 251.808H213.1L239.879 276.586H147.34L120.561 251.808Z" fill="#101839" stroke="#101839" stroke-width="2" stroke-miterlimit="22.93"/>
<path fill-rule="evenodd" clip-rule="evenodd" d="M285.1 510.863L295.542 563.853H267.088C267.088 563.801 263.824 551.774 257.195 555.81C254.726 557.305 255.681 561.147 256.249 563.962H181.353C178.813 527.569 242.216 533.265 238.355 510.868L285.1 510.863Z" fill="#101839" stroke="#101839" stroke-width="2" stroke-miterlimit="22.93"/>
<path fill-rule="evenodd" clip-rule="evenodd" d="M179.82 560.711H256.476L257.479 566.956H180.823L179.82 560.711Z" fill="#2C3455"/>
<path fill-rule="evenodd" clip-rule="evenodd" d="M264.969 560.711L295.05 560.702L296.214 566.942L265.972 566.957L264.969 560.711Z" fill="#2C3455"/>
<path d="M194.927 539.572C200.221 545.155 204.016 552.73 207.044 560.711" stroke="#101839" stroke-width="2" stroke-miterlimit="22.93"/>
<path fill-rule="evenodd" clip-rule="evenodd" d="M272.293 333.971C321.805 333.971 380.302 335.333 429.81 335.333C430.061 336.947 431.565 351.543 431.736 353.075C440.081 428.26 358.747 415.727 351.304 416.734L277.558 415.088L295.13 511.814H238.355L212.915 408.048C206.055 383.237 199.791 353.369 234.443 343.561L264.424 335.045L272.293 333.971Z" fill="#E0DE72" stroke="#101839" stroke-width="2" stroke-miterlimit="22.93"/>
<path fill-rule="evenodd" clip-rule="evenodd" d="M357.763 110.656C349.095 109.355 337.924 110.533 329.257 109.237C329.257 124.154 329.072 141.045 327.989 156.019C337.295 156.019 352.473 156.492 361.779 156.492C361.141 142.88 358.401 124.254 357.763 110.656Z" fill="#FDC7A4" stroke="#101839" stroke-width="2" stroke-miterlimit="22.93"/>
<path fill-rule="evenodd" clip-rule="evenodd" d="M264.32 334.576C264.32 334.576 426.276 335.206 431.101 335.385L418.89 251.004C414.263 219.777 394.694 121.708 362.333 135.287C362.333 135.287 362.432 140.094 361.86 141.523C353.112 150.687 329.943 143.727 329.943 143.727C325.211 135.613 313.828 131.838 305.255 139.687C290.257 153.408 269.345 225.029 258.889 242.293H213.8C211.406 245.35 192.325 263.896 192.325 263.896C202.033 283.725 241.733 300.01 262.153 297.834L264.32 334.576Z" fill="white" stroke="#101839" stroke-width="2" stroke-miterlimit="22.93"/>
<path fill-rule="evenodd" clip-rule="evenodd" d="M316.766 103.436C315.167 102.963 310.748 99.8216 313.876 94.9484C314.845 93.4391 316.993 90.5673 318.134 86.839C323.608 66.9678 344.406 61.735 354.943 71.1455C363.819 79.0798 368.044 103.417 353.523 118.841C342.041 131.038 314.604 128.952 316.766 103.436Z" fill="#FDC7A4"/>
<path d="M348.787 122.598C335.89 130.201 314.864 125.91 316.785 103.436C315.186 102.963 310.767 99.8216 313.895 94.9484C314.864 93.4391 317.012 90.5673 318.153 86.839C323.627 66.9678 344.425 61.735 354.962 71.1455C362.423 77.8118 366.596 96.0697 359.116 110.888C358.704 111.697 357.507 114.2 356.452 115.297" stroke="#101839" stroke-width="2" stroke-miterlimit="22.93"/>
<path d="M262.163 297.819C303.325 296.755 315.976 257.556 317.689 238.929" stroke="#101839" stroke-width="2" stroke-miterlimit="22.93"/>
<path d="M327.809 141.641C329.451 143.846 335.422 149.509 336.075 156.189" stroke="#101839" stroke-width="2" stroke-miterlimit="22.93"/>
<path fill-rule="evenodd" clip-rule="evenodd" d="M196.214 269.626L213.81 242.279C213.767 241.399 210.375 233.29 205.634 228.223C202.1 224.438 196.725 222.545 192.335 224.542C190.873 225.204 189.856 225.725 188.592 225.602C174.219 224.22 175.993 234.662 175.993 234.662C175.591 234.814 175.198 234.979 174.81 235.164C172.591 236.219 170.718 237.842 169.904 240.179C169.118 242.426 168.811 245.799 171.934 249.05C171.962 249.726 170.041 250.753 169.946 253.653C169.847 256.426 171.508 259.894 173.864 261.465C176.499 263.22 179.944 262.756 181.566 259.359C185.143 259.421 192.533 265.893 195.382 268.699L196.214 269.626Z" fill="#FDC7A4" stroke="#101839" stroke-width="2" stroke-miterlimit="22.93"/>
<path d="M171.408 249.958C173.3 247.427 180.307 242.573 185.531 245.535" stroke="#101839" stroke-width="2" stroke-miterlimit="22.93"/>
<path d="M174.076 235.48C177.873 233.653 182.182 233.185 186.283 234.156" stroke="#101839" stroke-width="2" stroke-miterlimit="22.93"/>
<path d="M187.977 225.55C191.544 225.914 195.85 227.182 196.711 227.953" stroke="#101839" stroke-width="2" stroke-miterlimit="22.93"/>
<path d="M182.749 259.563C182.034 259.378 179.811 258.664 178.491 258.863" stroke="#101839" stroke-width="2" stroke-miterlimit="22.93"/>
<path d="M345.627 86.5832C350.022 83.2004 354.55 86.763 354.243 91.6267C354.006 95.3266 349.303 99.2251 344.43 95.9463" stroke="#101839" stroke-width="2" stroke-miterlimit="22.93"/>
<path d="M349.232 88.3816C347.226 88.9588 346.024 92.0247 348.035 94.2957" stroke="#101839" stroke-width="2" stroke-miterlimit="22.93"/>
<path d="M324.493 116.665C326.527 116.026 327.951 115.349 328.897 114.062" stroke="#101839" stroke-width="2" stroke-miterlimit="22.93"/>
<path d="M321.914 88.9492C321.914 90.0989 321.63 91.2675 321.63 92.2611" stroke="#101839" stroke-width="2" stroke-miterlimit="22.93"/>
<path d="M259.594 240.959C256.902 245.454 256.892 248.581 256.892 253.587" stroke="#101839" stroke-width="2" stroke-miterlimit="22.93"/>
<path d="M312.106 237.212C315.011 238.452 320.173 240.647 323.277 240.647" stroke="#101839" stroke-width="2" stroke-miterlimit="22.93"/>
<path d="M285.611 415.088C278.987 414.875 265.674 413.352 261.165 409.841" stroke="#101839" stroke-width="2" stroke-miterlimit="22.93"/>
<path fill-rule="evenodd" clip-rule="evenodd" d="M359.996 128.507C360.469 130.399 339.614 136.55 329.11 128.649L324.512 138.036C325.183 138.883 325.898 139.734 326.688 140.553C330.142 144.139 335.091 147.176 344.903 147.068C351.853 147.001 359.253 145.7 362.286 142.45C363.232 141.437 364.855 141.542 360.682 129.482C360.535 129.046 359.93 128.228 359.996 128.507Z" fill="white" stroke="#101839" stroke-width="2" stroke-miterlimit="22.93"/>
<path d="M304.938 334.851L307.242 272.791" stroke="#101839" stroke-width="2" stroke-miterlimit="22.93"/>
<path fill-rule="evenodd" clip-rule="evenodd" d="M471.175 259.591H377.97C370.821 259.591 363.909 265.439 362.598 272.583L353.509 322.228C352.203 329.377 356.982 335.225 364.126 335.225H457.332C464.476 335.225 471.398 329.377 472.704 322.228L481.792 272.583C483.098 265.439 478.32 259.591 471.175 259.591Z" fill="#101839" stroke="#101839" stroke-width="2" stroke-miterlimit="22.93"/>
<path fill-rule="evenodd" clip-rule="evenodd" d="M473.181 259.591H379.976C372.827 259.591 365.91 265.439 364.604 272.583L355.515 322.228C354.209 329.377 358.983 335.225 366.132 335.225H459.338C466.482 335.225 473.399 329.377 474.71 322.228L483.779 272.583C485.104 265.439 480.326 259.591 473.181 259.591Z" fill="#F7CFB9" stroke="#101839" stroke-width="2" stroke-miterlimit="22.93"/>
<path d="M278.609 415.628H440.095V420.529H278.609V415.628Z" fill="#F7CFB9" stroke="#101839" stroke-width="2" stroke-miterlimit="22.93"/>
<path d="M278.609 415.628H354.962V420.529H278.609V415.628Z" fill="#101839" stroke="#101839" stroke-width="2" stroke-miterlimit="22.93"/>
<path d="M427.156 415.628L454.947 277.579" stroke="#575757" stroke-width="2" stroke-miterlimit="22.93"/>
<path d="M367.996 415.628L395.788 277.579" stroke="#575757" stroke-width="2" stroke-miterlimit="22.93"/>
<path d="M290.48 531.312L298.22 570.425" stroke="white" stroke-width="2" stroke-miterlimit="22.93"/>
<path d="M295.263 342.96C286.515 340.495 268.9 334.652 264.321 334.652" stroke="#101839" stroke-width="2" stroke-miterlimit="22.93"/>
<path fill-rule="evenodd" clip-rule="evenodd" d="M325.543 73.8326C325.566 57.5429 347.344 51.5957 360.01 58.2904C372.41 64.8527 379.881 81.4073 369.695 95.7193C366.099 100.782 362.224 101.87 362.224 101.87C357.02 101.794 356.125 95.7714 354.687 90.6143C354.363 89.3817 353.786 88.2298 352.993 87.2315C349.904 83.4749 344.629 85.093 342.939 91.2909C342.036 94.6028 338.047 94.6028 337.953 89.7769C337.882 85.7837 337.995 74.6653 337.617 74.3436C337.238 74.0218 325.543 73.8326 325.543 73.8326Z" fill="#101839" stroke="#101839" stroke-width="2" stroke-miterlimit="22.93"/>
<path d="M18.1535 297.999H262.201V303.549H18.1535V297.999Z" fill="#F7CFB9" stroke="#101839" stroke-width="2" stroke-miterlimit="22.93"/>
<path d="M18.1533 297.999H202.823V303.549H18.1533V297.999Z" fill="#101839" stroke="#101839" stroke-width="2" stroke-miterlimit="22.93"/>
<path d="M168.825 304.202L230.629 567.183" stroke="#575757" stroke-width="2" stroke-miterlimit="22.93"/>
<path d="M61.0612 303.384L9.98257 567.047" stroke="#575757" stroke-width="2" stroke-miterlimit="22.93"/>
<path d="M38.5926 417.246H195.131" stroke="#575757" stroke-width="2" stroke-miterlimit="22.93"/>
<path d="M240.38 567.047H218.735" stroke="#575757" stroke-width="2" stroke-miterlimit="22.93"/>
<path d="M21.6407 567.047H2.86947e-05" stroke="#575757" stroke-width="2" stroke-miterlimit="22.93"/>
<path d="M73.5852 89.1193L79.9109 80.7639" stroke="#101839" stroke-width="2" stroke-miterlimit="22.93"/>
<path d="M79.0067 95.6723L86.2361 92.2847" stroke="#101839" stroke-width="2" stroke-miterlimit="22.93"/>
<path d="M80.8143 104.709L88.4978 105.163" stroke="#101839" stroke-width="2" stroke-miterlimit="22.93"/>
<path d="M143.418 294.498L105.606 258.399C102.256 255.844 97.4777 257.561 97.6858 263.277C97.894 268.992 97.9177 280.839 97.8798 285.547C97.8798 286.02 97.8798 289.09 97.8798 289.407C97.7852 295.619 89.7989 295.936 89.8367 289.128" stroke="#101839" stroke-width="2" stroke-miterlimit="22.93"/>
<path d="M189.003 178.351L192.296 194.678" stroke="white" stroke-width="2" stroke-miterlimit="22.93"/>
</svg>
